<?xml version="1.0" standalone="no"?>
<!DOCTYPE svg PUBLIC "-//W3C//DTD SVG 1.1//EN" "http://www.w3.org/Graphics/SVG/1.1/DTD/svg11.dtd" >
<svg xmlns="http://www.w3.org/2000/svg" xmlns:xlink="http://www.w3.org/1999/xlink" version="1.1">
<metadata></metadata>
<defs>
<font id="caladearegular" horiz-adv-x="1134" >
<font-face units-per-em="2048" ascent="1593" descent="-455" />
<missing-glyph horiz-adv-x="450" />
<glyph horiz-adv-x="0" />
<glyph unicode="&#xd;" horiz-adv-x="681" />
<glyph unicode=" "  horiz-adv-x="450" />
<glyph unicode="&#x09;" horiz-adv-x="450" />
<glyph unicode="&#xa0;" horiz-adv-x="450" />
<glyph unicode="!" horiz-adv-x="585" d="M150 104.5q0 118.5 108.5 118.5t108.5 -118.5t-108.5 -118.5t-108.5 118.5zM170 1323q43 35 123 35q113 0 113 -154q0 -68 -43.5 -353.5t-53.5 -416.5l-106 -18l4 413q0 334 -37 494z" />
<glyph unicode="&#x22;" horiz-adv-x="804" d="M150 1286q0 51 25.5 77t67.5 26t68.5 -26t26.5 -60q0 -59 -37 -269l-12 -69h-90q-49 270 -49 321zM477 1286q0 51 25.5 77t67.5 26t69 -26t27 -60q0 -59 -37 -269l-13 -69h-90q-49 270 -49 321z" />
<glyph unicode="#" horiz-adv-x="1267" d="M88 356l21 109h245l58 258h-217l20 108h219l82 367l105 -24l-76 -343h254l82 367l102 -24l-76 -343h246l-20 -108h-250l-56 -258h220l-21 -109h-223l-80 -370l-105 24l76 346h-254l-82 -370l-102 24l76 346h-244zM463 465h256l57 258h-256z" />
<glyph unicode="$" horiz-adv-x="1036" d="M121 324q0 45 32.5 74.5t85 29.5t83.5 -37q-12 -39 -13 -72q0 -68 52.5 -111.5t136.5 -45.5v459q-68 29 -98.5 42t-86 46.5t-80.5 66.5q-72 90 -71.5 214t94.5 212t242 96v189l12 12q45 0 70 -8v-195q129 -12 215 -73.5t86 -141.5q0 -57 -25 -91t-73 -34t-93 33 q23 35 23 81t-36 82t-97 46v-412q244 -102 297 -223q25 -59 24 -137q0 -147 -86 -241.5t-235 -114.5v-189l-13 -12q-33 0 -69 10v187q-176 0 -276.5 68.5t-100.5 189.5zM330 1001q0 -61 43 -102t125 -78v379q-168 -17 -168 -199zM580 170q153 35 153 199q0 129 -153 213 v-412z" />
<glyph unicode="%" horiz-adv-x="1822" d="M123 1007.5q0 184.5 71.5 287t217 102.5t217 -102.5t71.5 -287t-71.5 -287t-217 -102.5t-217 102.5t-71.5 287zM260 1007.5q0 -155.5 32 -232.5t121 -77t119.5 76t30.5 233.5t-30.5 233.5t-119.5 76t-121 -77t-32 -232.5zM395 -39l920 1485l102 -62l-917 -1484z M1110 374.5q0 184.5 71.5 287t217 102.5t217.5 -102.5t72 -287t-72 -286.5t-217.5 -102t-217 102t-71.5 286.5zM1247 374.5q0 -155.5 32 -232t121 -76.5t119.5 75.5t30.5 233t-30.5 233.5t-119.5 76t-121 -77t-32 -232.5z" />
<glyph unicode="&#x26;" horiz-adv-x="1406" d="M90 401q0 293 283 390q-174 78 -174 270q0 156 108.5 233.5t271 77.5t266 -64.5t103.5 -177.5q0 -61 -31.5 -98t-85 -37t-90.5 54q29 45 29 84q0 160 -188 159q-98 0 -152.5 -61.5t-54.5 -158.5t55 -161.5t176 -66.5v-99q-150 -18 -238.5 -107t-88.5 -238.5t97 -231.5 t274 -82t303 108.5t126 319.5q0 131 -47 272q-154 -8 -153 -100q0 -49 41 -84q-39 -39 -87.5 -39t-77 35t-28.5 88q0 186 326 186q111 0 161 24t50 77t-39 88q39 39 86 39t75.5 -32t28.5 -83q0 -190 -285 -197q59 -143 60 -303q0 -240 -150.5 -370.5t-405.5 -130.5 t-399.5 110t-144.5 307z" />
<glyph unicode="'" horiz-adv-x="485" d="M150 1277.5q0 51.5 25.5 77t67.5 25.5t68.5 -25.5t26.5 -60.5q0 -59 -37 -268l-12 -70h-90q-49 270 -49 321.5z" />
<glyph unicode="(" horiz-adv-x="782" d="M180 577.5q0 163.5 41 315t101 250.5q125 203 219 278l41 33l51 -51q-305 -319 -305 -823t305 -824l-51 -53q-57 43 -133 131t-129.5 181.5t-96.5 246t-43 316z" />
<glyph unicode=")" horiz-adv-x="782" d="M150 -244q305 319 305 822t-305 825l51 51q16 -12 42.5 -34.5t96.5 -104.5t123 -175t96 -246t43 -316.5t-41 -314t-100 -249.5q-121 -201 -219 -278l-41 -33z" />
<glyph unicode="*" horiz-adv-x="874" d="M141 1067q0 33 20.5 53.5t46 20.5t84 -27t118.5 -33q-31 43 -73 75t-63.5 53.5t-21.5 51t22.5 51t61.5 21.5t51 -25.5t20.5 -90t30.5 -115.5q33 70 41 168q4 63 70 63q33 0 54.5 -21.5t21.5 -57t-61.5 -81t-94.5 -90.5q53 6 113.5 32t86 26t47 -20.5t21.5 -53.5 t-21.5 -54.5t-48 -21.5t-87 25.5t-113.5 32.5q33 -45 75 -76t62.5 -50.5t20.5 -51t-22.5 -53t-62.5 -21.5t-50.5 22.5t-16.5 88t-35 124.5q-25 -55 -31 -118.5t-14 -77.5q-27 -39 -61.5 -39t-57 21.5t-22.5 52t20.5 50t62.5 50t73 78.5q-57 -6 -116 -32t-84.5 -26t-46 21.5 t-20.5 54.5z" />
<glyph unicode="+" d="M147 530v109h353v365h123v-365h362v-109h-362v-362h-123v362h-353z" />
<glyph unicode="," horiz-adv-x="419" d="M80 -217q41 35 65.5 85t24.5 105.5t-41 55.5q-11 0 -25 -6q-23 27 -22.5 73.5t35.5 76.5t91 30t92 -41t36 -109q0 -199 -207 -329z" />
<glyph unicode="-" horiz-adv-x="679" d="M106 473v111h469v-111h-469z" />
<glyph unicode="." horiz-adv-x="419" d="M100 104.5q0 118.5 108.5 118.5t108.5 -118.5t-108.5 -118.5t-108.5 118.5z" />
<glyph unicode="/" horiz-adv-x="1003" d="M158 -229l641 1661l112 -43l-641 -1659z" />
<glyph unicode="0" d="M98 681q0 335 123 514t354.5 179t353.5 -178t122 -515t-122 -516t-353.5 -179t-354.5 180t-123 515zM287 679.5q0 -321.5 65.5 -457.5t222 -136t223 136t66.5 456.5t-66.5 457t-222 136.5t-222 -135.5t-66.5 -457z" />
<glyph unicode="1" d="M268 0l4 70q182 20 279 61v1040h-275v89q207 18 388 114l67 -31v-1212q68 -37 256 -61l-6 -70h-713z" />
<glyph unicode="2" d="M143 1087q0 141 114 214t296 73t285.5 -98t103.5 -278.5t-133 -378t-449 -467.5h635v-152h-850v119q344 326 475.5 522.5t131.5 374.5q0 256 -211 256q-96 0 -151.5 -47t-55.5 -120t43 -128q-45 -45 -101.5 -45t-94.5 39t-38 116z" />
<glyph unicode="3" d="M143 266q0 51 33 83t84 32t98 -35q-16 -45 -16 -86q0 -80 60.5 -127t164 -47t162.5 77t59 214t-92 216t-258 79v90q326 10 326 278q0 113 -50 172.5t-141.5 59.5t-145.5 -47t-54 -110.5t22 -92.5q-49 -37 -99 -37t-75.5 36t-25.5 97q0 109 109.5 182.5t274 73.5t269 -92 t104.5 -242q0 -236 -268 -321q285 -76 285 -348q0 -170 -116 -277.5t-303.5 -107.5t-297 74.5t-109.5 205.5z" />
<glyph unicode="4" d="M72 444l577 922h207v-879h195v-112h-195v-244q63 -39 178 -55l-10 -76h-549l12 76q119 14 189 55v244h-590zM233 487h443v713z" />
<glyph unicode="5" d="M174 252q0 59 32 93t88 34t97 -33q-18 -51 -18 -84q0 -78 55 -126t145 -48q125 0 194 84t69 234.5t-70 233.5t-198 83t-265 -82l-63 68v634l41 29q170 -4 342 -4t272 2l41 -29l-16 -120h-551v-435q111 43 225 43q190 0 305 -113.5t115 -304t-124 -309t-309.5 -118.5 t-296 74.5t-110.5 193.5z" />
<glyph unicode="6" d="M135 526q0 346 170 561.5t502 290.5l35 -88q-227 -59 -351 -199t-157 -378q131 84 295 84t275.5 -112t111.5 -296t-121 -296.5t-326 -112.5q-434 0 -434 546zM322 528q0 -446 249 -446q121 0 188.5 82t67.5 223t-64.5 218t-186 77t-252.5 -100q-2 -18 -2 -54z" />
<glyph unicode="7" d="M160 1337l28 31q184 -2 392 -2l430 2l37 -88l-580 -1280h-156l570 1217h-564q-37 -105 -43 -222q-12 -4 -31.5 -4t-52.5 4q0 4 -15 148.5t-15 193.5z" />
<glyph unicode="8" d="M145 352q0 221 246 375q-195 104 -194 307q0 154 107.5 247t283.5 93t276.5 -87t100.5 -236q0 -176 -203 -301q264 -133 264 -379q0 -176 -117.5 -280.5t-323.5 -104.5t-323 95t-117 271zM332 365q0 -131 69.5 -205t188.5 -74t185.5 73.5t66.5 185.5t-67.5 177.5 t-233.5 136.5l-47 21q-162 -106 -162 -315zM371 1067q0 -90 58 -143.5t214 -118.5l14 -8q131 94 131 256q0 98 -56 158.5t-152.5 60.5t-152.5 -57.5t-56 -147.5z" />
<glyph unicode="9" d="M117 964.5q0 184.5 120.5 297t325.5 112.5q434 0 434 -547q0 -346 -170 -561t-501 -291l-35 88q227 59 351 199.5t157 378.5q-131 -84 -295 -84t-275.5 111.5t-111.5 296zM305 966.5q0 -141.5 64.5 -218t186.5 -76.5t253 100q2 18 2 53q0 446 -250 447q-121 0 -188.5 -82 t-67.5 -223.5z" />
<glyph unicode=":" horiz-adv-x="540" d="M160 104.5q0 118.5 108.5 118.5t108.5 -118.5t-108.5 -118.5t-108.5 118.5zM160 788.5q0 118.5 108.5 118.5t108.5 -118.5t-108.5 -118.5t-108.5 118.5z" />
<glyph unicode=";" horiz-adv-x="540" d="M139 -217q41 35 65.5 85t24.5 105.5t-41 55.5q-8 0 -24 -6q-23 27 -23 73.5t35 76.5t91.5 30t92 -41t35.5 -109q0 -199 -207 -329zM160 788.5q0 118.5 108.5 118.5t108.5 -118.5t-108.5 -118.5t-108.5 118.5z" />
<glyph unicode="&#x3c;" d="M131 532v107l784 371l52 -105l-674 -319l674 -322l-52 -102z" />
<glyph unicode="=" d="M127 383v109h881v-109h-881zM127 678v106h881v-106h-881z" />
<glyph unicode="&#x3e;" d="M158 264l673 322l-673 319l51 105l784 -371v-107l-784 -370z" />
<glyph unicode="?" horiz-adv-x="864" d="M49.5 1126.5q-0.5 108.5 94 162.5t233.5 54t231 -62t92 -198q0 -78 -33.5 -146.5t-81.5 -115.5t-98 -92q-117 -104 -116 -190q0 -41 12 -90q-41 -33 -89 -33t-74.5 36.5t-26.5 101t35.5 126t87 105.5t102.5 87q121 104 121 236q0 68 -48.5 108.5t-119.5 40.5 q-143 0 -144 -106q0 -35 23 -74q-41 -59 -98 -59q-102 0 -102.5 108.5zM205 104.5q0 118.5 108.5 118.5t108.5 -118.5t-108.5 -118.5t-108.5 118.5z" />
<glyph unicode="@" horiz-adv-x="1812" d="M104 501.5q0 356.5 224.5 588t594 231.5t581.5 -199.5t212 -511.5q0 -244 -98 -398.5t-281 -154.5q-223 0 -272 109q-117 -100 -246 -100q-252 0 -252 219q0 250 336 278l144 12v140q0 96 -36 140t-109 44t-111.5 -24.5t-38.5 -67.5t59 -64q0 -100 -115 -100 q-51 0 -81.5 33t-30.5 82q0 100 86 158.5t232.5 58.5t231.5 -68.5t85 -191.5v-430q0 -131 131 -131q86 0 135 133t49 323q0 272 -152.5 447.5t-448.5 175.5t-471 -207t-175 -511t169 -509t447 -205q197 0 326 78l45 -72q-156 -98 -371 -98q-367 0 -583 218t-216 574.5z M737 301q0 -147 115 -147q90 0 195 104v229l-136 -10q-80 -6 -127 -55t-47 -121z" />
<glyph unicode="A" horiz-adv-x="1275" d="M27 0l10 76q92 14 145 53l383 1237h123l422 -1239q51 -37 135 -51l-8 -76h-512l10 76q119 14 189 55l-105 309h-413l-95 -309q68 -39 199 -55l-8 -76h-475zM438 547h346l-180 534z" />
<glyph unicode="B" horiz-adv-x="1251" d="M84 1292l10 74h531q469 0 469 -340q0 -233 -240 -301q141 -41 219 -128t78 -212q0 -178 -124 -281.5t-347 -103.5h-594q2 27 10 76q119 14 189 55v1106q-72 41 -201 55zM465 109q121 -8 215 -9q285 0 285 283q0 137 -85 212t-253 75h-162v-561zM465 770h164 q147 0 216.5 61.5t69.5 190.5t-70 189.5t-222 60.5q-51 0 -158 -8v-494z" />
<glyph unicode="C" horiz-adv-x="1150" d="M111 683q0 357 130 529t400 172q176 0 292 -76.5t116 -193.5q0 -68 -35 -115t-80 -47t-78 22.5t-45 57.5q39 53 39 109.5t-57.5 94.5t-151.5 38q-166 0 -246 -144.5t-80 -443.5t79 -438t247 -139q106 0 207.5 50t152.5 117l72 -77q-18 -25 -68.5 -68t-97.5 -72 q-121 -73 -268 -73q-270 0 -399 170t-129 527z" />
<glyph unicode="D" horiz-adv-x="1355" d="M82 1292l10 74h440q358 0 536.5 -164t178.5 -521t-179 -519t-548 -162h-436l10 76q125 16 187 53v1108q-72 39 -199 55zM463 109q35 -8 92 -9q246 0 366.5 132.5t120.5 450.5t-118.5 449.5t-362.5 131.5h-98v-1155z" />
<glyph unicode="E" horiz-adv-x="1177" d="M63 0l13 76q137 16 188 55v1106q-78 41 -201 55q8 49 11 74h913l17 -311q-27 -10 -47.5 -10.5t-41.5 4.5q-27 135 -86 208h-385v-512l232 11q80 2 115 137h65v-406h-65q-10 49 -20.5 74t-36 50.5t-60.5 27.5l-230 12v-532h437q61 86 88 231q25 4 37 4t45 -4l-19 -350 h-969z" />
<glyph unicode="F" horiz-adv-x="1099" d="M63 0l13 76q137 16 188 55v1106q-80 41 -201 55q8 49 11 74h913l17 -311q-27 -10 -52.5 -10.5t-36.5 4.5q-25 127 -96 208h-375v-528l232 10q80 2 115 140h65v-406h-65l-3 12q-33 133 -114 138l-230 12v-504q63 -39 199 -55l-8 -76h-572z" />
<glyph unicode="G" horiz-adv-x="1251" d="M123 684q0 340 130 520t429 180q236 0 362 -114q70 -66 70 -147t-36 -126t-81 -45t-77.5 22.5t-45.5 57.5q39 57 39 113.5t-64.5 92.5t-170 36t-178 -46t-108.5 -134t-49 -183.5t-13 -226.5t13 -226.5t48 -183.5q72 -180 289 -180q145 0 252 76v358q-76 33 -209 43l8 76 l383 19v-580q-182 -100 -434 -100q-301 0 -429 179t-128 519z" />
<glyph unicode="H" horiz-adv-x="1406" d="M51 0l12 76q106 14 179 55v1106q-82 43 -191 55q8 49 10 74h562l-13 -74q-113 -14 -188 -55v-483h563v483q-80 41 -201 55q8 49 11 74h559q-8 -49 -11 -74q-100 -12 -178 -55v-1106q70 -41 189 -55l-8 -76h-562l13 76q119 14 188 55v518h-563v-518q74 -41 201 -55 q-8 -49 -11 -76h-561z" />
<glyph unicode="I" horiz-adv-x="663" d="M41 0l12 76q119 14 189 55v1106q-80 41 -201 55q8 49 10 74h567q-2 -25 -10 -74q-111 -14 -186 -55v-1106q68 -39 199 -55l-11 -76h-569z" />
<glyph unicode="J" horiz-adv-x="628" d="M-16 -344q111 51 176 130t65 216v1235q-80 41 -200 55l10 74h567q-2 -25 -10 -74q-115 -14 -186 -55v-1204q0 -180 -103.5 -283.5t-296.5 -155.5z" />
<glyph unicode="K" horiz-adv-x="1288" d="M53 0l13 76q119 14 186 55v1106q-76 41 -199 55q8 49 10 74h572l-12 -74q-113 -12 -189 -55v-1106q74 -41 201 -55q-8 -49 -10 -76h-572zM455 713l385 479q12 25 12 41q0 55 -127 59l12 74h482l-9 -74q-125 -8 -186 -65l-381 -477l447 -619q59 -43 174 -53l-13 -78h-327 q-4 55 -33 98z" />
<glyph unicode="L" horiz-adv-x="1099" d="M98 0l13 76q121 14 184 55v1106q-76 41 -197 55q2 25 11 74h567l-10 -74q-113 -14 -189 -55v-1118h383q61 90 88 231q14 6 36 6t46 -6l-18 -350h-914z" />
<glyph unicode="M" horiz-adv-x="1669" d="M-14 0l10 76q119 14 186 55v1106q-76 41 -196 55l8 74h395l459 -1114l442 1114h391q-8 -49 -10 -74q-113 -12 -188 -55v-1106q68 -39 198 -55l-8 -76h-569q8 55 10 76q117 14 189 55v952h-9l-415 -1083h-121l-436 1102h-9v-971q68 -39 199 -55l-8 -76h-518z" />
<glyph unicode="N" horiz-adv-x="1394" d="M51 0l12 76q119 14 189 55v1106q-80 41 -201 55q8 49 10 74h326l645 -975v846q-72 39 -196 55q2 25 10 74h518q-8 -49 -10 -74q-113 -12 -189 -55v-1237h-88l-696 1055v-924q68 -39 199 -55l-9 -76h-520z" />
<glyph unicode="O" horiz-adv-x="1337" d="M109 685q0 339 130 519t430 180t430 -181t130 -520t-130 -518t-430 -179t-430 180t-130 519zM315 684q0 -254 62 -414q35 -90 108.5 -137t174 -47t165 33t102.5 85t59.5 134t28.5 161t7 183t-7 184t-28.5 162t-60.5 135q-86 119 -256 119q-221 0 -293 -184 q-61 -156 -62 -414z" />
<glyph unicode="P" horiz-adv-x="1163" d="M74 1292q8 49 10 74h526q455 0 455 -379q0 -213 -139.5 -300t-405.5 -87h-65v-469q68 -39 198 -55l-8 -76h-569l12 76q117 14 186 55v1106q-80 41 -200 55zM455 692h65q361 0 361 299q0 289 -291 289q-66 0 -135 -12v-576z" />
<glyph unicode="Q" horiz-adv-x="1337" d="M109 691q0 333 130 513t430 180t430 -181t130 -501.5t-103.5 -495.5t-337.5 -210q37 -96 121 -171t195 -112v-12q0 -31 -21 -49q-315 53 -460 336q-274 12 -394 191t-120 512zM315 684q0 -254 62 -414q35 -90 108.5 -137t174 -47t165 33t102.5 85t59.5 134t28.5 161 t7 183t-7 184t-28.5 162t-60.5 135q-86 119 -256 119q-221 0 -293 -184q-61 -156 -62 -414z" />
<glyph unicode="R" horiz-adv-x="1271" d="M78 1292l10 74h526q469 0 469 -360q0 -270 -282 -338q70 -45 127 -176l162 -361q61 -41 172 -53l-13 -78h-309l-178 457q-49 125 -90 152.5t-172 27.5h-41v-506q57 -37 198 -55q-8 -49 -10 -76h-567l10 76q119 14 189 55v1106q-72 41 -201 55zM459 731h63q377 0 377 279 q0 272 -287 272q-70 0 -153 -14v-537z" />
<glyph unicode="S" horiz-adv-x="1015" d="M106 92v336q45 10 101 10q25 -197 74 -303q94 -47 215.5 -47t192.5 65.5t71 163t-66.5 164t-161 112.5t-188.5 97t-160.5 138t-66.5 206q0 156 113.5 253t295.5 97q233 0 379 -92l-31 -274q-25 -6 -47 -6t-41 6q-30 143 -89.5 202.5t-167 59.5t-173 -56.5t-65.5 -144.5 t67.5 -155.5t163.5 -115.5t192.5 -100.5t164 -140.5t67.5 -207q0 -172 -127 -273t-342 -101q-88 0 -201.5 32.5t-169.5 73.5z" />
<glyph unicode="T" horiz-adv-x="1214" d="M82 1022v352q270 -8 619.5 -8t431.5 8v-352q-14 -2 -44 -2t-47 2q-14 147 -73 235q-133 14 -271 17v-1143q72 -39 201 -55q-8 -49 -10 -76h-570l13 76q121 14 186 55v1143q-158 -2 -268 -14q-74 -103 -78 -238l-49 -2q-27 0 -41 2z" />
<glyph unicode="U" horiz-adv-x="1327" d="M-16 1292l8 74h573l-12 -74q-117 -20 -184 -55v-807q0 -180 74.5 -259t235.5 -79t247 90t86 260v795q-76 41 -199 55q2 25 10 74h518l-10 -74q-121 -20 -188 -55v-795q0 -219 -120 -337.5t-362.5 -118.5t-360.5 106.5t-118 337.5v807q-80 41 -198 55z" />
<glyph unicode="V" horiz-adv-x="1236" d="M14 1292l11 74h495l-12 -74q-106 -14 -176 -55l321 -924l293 924q-82 43 -186 55q8 49 10 74h451l-13 -74q-70 -12 -127 -53l-401 -1239h-98l-443 1237q-43 37 -125 55z" />
<glyph unicode="W" horiz-adv-x="1886" d="M41 1292l8 74h498l-12 -74q-106 -14 -177 -55l271 -911l305 1040h65l328 -1036l244 907q-82 43 -187 55l11 74h450l-12 -74q-68 -12 -123 -51l-354 -1241h-99l-315 946l-287 -946h-98l-393 1239q-45 35 -123 53z" />
<glyph unicode="X" horiz-adv-x="1169" d="M-51 0q8 55 10 76q117 8 180 49l357 569l-351 545q-45 33 -125 53l11 74h506l-13 -74q-100 -14 -164 -55l250 -393l246 393q-63 37 -164 55q2 25 10 74h445l-10 -74q-74 -10 -131 -53l-320 -512l385 -602q49 -35 152 -49q-8 -49 -11 -76h-544q8 55 10 76q123 0 176 53 l-287 451l-280 -455q37 -49 190 -49l-8 -76h-520z" />
<glyph unicode="Y" horiz-adv-x="1167" d="M23 1292l10 74h506q-8 -49 -11 -74q-106 -14 -178 -55l256 -535l262 537q-78 41 -182 53q2 25 10 74h451l-12 -74q-74 -14 -125 -53l-332 -672v-436q70 -39 209 -55l-8 -76h-590l10 76q127 14 199 55v412l-348 696q-49 37 -127 53z" />
<glyph unicode="Z" horiz-adv-x="1101" d="M78 94l708 1166l-79 2h-103q-121 0 -305 -5q-69 -61 -98 -229l-43 -2q-25 0 -35 2l-25 299l54 49q246 -10 410.5 -10t441.5 10l18 -82l-727 -1188q55 -2 229 -2t273 2q96 115 135 265q25 4 42 4t46 -4l-19 -377q-141 6 -500.5 6t-416.5 -8z" />
<glyph unicode="[" horiz-adv-x="716" d="M227 -287v1739h371v-68l-231 -20v-1561l231 -20v-70h-371z" />
<glyph unicode="\" horiz-adv-x="1003" d="M100 1374l115 43l627 -1630l-115 -43z" />
<glyph unicode="]" horiz-adv-x="716" d="M119 -217l231 20v1561l-231 20v68h370v-1739h-370v70z" />
<glyph unicode="^" d="M143 729l371 651h107l370 -651l-102 -51l-322 559l-319 -559z" />
<glyph unicode="_" horiz-adv-x="759" d="M0 -119h760v-110h-760v110z" />
<glyph unicode="`" horiz-adv-x="583" d="M117 1320q0 32 22.5 53.5t56 21.5t60.5 -35l170 -238l-49 -49l-209 170q-51 45 -51 77z" />
<glyph unicode="a" horiz-adv-x="999" d="M90 230.5q0 121.5 98.5 198.5t284.5 89l168 12v166q0 102 -43 149.5t-139 47.5q-170 0 -170 -92q0 -53 61 -76q0 -98 -117 -98q-53 0 -85.5 32.5t-32.5 85.5q0 104 93 167t256 63t257 -74t94 -205v-571q47 -35 143 -55l-8 -70h-282l-21 92q-115 -106 -291 -106 q-127 0 -196.5 61.5t-69.5 183zM270 238q0 -168 138 -168q109 0 233 118v258l-164 -14q-96 -8 -151.5 -60t-55.5 -134z" />
<glyph unicode="b" horiz-adv-x="1120" d="M49 1296l6 62q74 12 273 69l41 -20v-576q31 59 99 101.5t142 42.5q209 0 305.5 -131t96.5 -356.5t-115 -363.5t-328 -138q-129 0 -237 100q-31 -47 -41 -86h-98v1161q0 76 -31 103.5t-113 31.5zM369 174q117 -102 202.5 -102t138 35.5t76 101t31.5 129t8 141.5t-3 129 t-15 107.5t-35 91.5q-51 80 -144 80t-144.5 -39t-73.5 -113q-41 -125 -41 -315v-246z" />
<glyph unicode="c" horiz-adv-x="903" d="M86 487q6 488 440 488q141 0 228.5 -60.5t87.5 -156.5q0 -47 -32 -84t-74 -37t-70.5 20.5t-38.5 53.5q27 42 27 83q0 44 -36 76q-34 32 -100.5 31.5t-119 -33t-79.5 -94.5q-43 -106 -43 -245.5t8.5 -203t32.5 -122.5q49 -117 211 -117q68 0 133.5 24.5t96.5 49.5l30 22 l54 -61q-14 -14 -41 -37t-112 -60.5t-171 -37.5q-231 0 -331.5 126t-100.5 375z" />
<glyph unicode="d" horiz-adv-x="1136" d="M231.5 843q118.5 132 343.5 132q88 0 175 -35v221q0 76 -31 103.5t-111 31.5l4 60q70 12 273 71l41 -20v-1282q47 -37 141 -55l-6 -70h-295l-16 121q-87 -135 -263 -135q-374 0 -374 470q0 255 118.5 387zM293 462q0 -202 52 -295t161 -93q244 0 244 385v389 q-78 41 -181 41q-131 0 -203.5 -112.5t-72.5 -314.5z" />
<glyph unicode="e" horiz-adv-x="999" d="M123 476.5q0 238.5 109.5 368.5t315.5 130t288 -106.5t88 -315.5l-43 -55h-570v-11q0 -250 64 -327q59 -74 188 -74q68 0 133.5 24.5t98.5 49.5l30 22l52 -61q-14 -14 -41 -37t-111 -60.5t-170 -37.5q-233 0 -332.5 126t-99.5 364.5zM311 573l428 15q0 162 -41.5 233.5 t-154.5 71.5q-225 0 -232 -320z" />
<glyph unicode="f" horiz-adv-x="620" d="M39 926q106 10 162 37v110q0 170 74.5 274.5t230.5 104.5t235 -51v-197h-112q-25 172 -140 172q-63 0 -101 -44t-38 -124l25 -245h213v-109h-213v-727q47 -35 166 -57l-6 -70h-478l9 74q86 14 135 53v727h-152z" />
<glyph unicode="g" horiz-adv-x="1011" d="M92 -198.5q0 110.5 35 158.5t123 97q-45 51 -45 138l168 118q-121 29 -187.5 112t-66.5 206q0 342 375 342q141 0 229 -49q74 23 74 75t-58 78q0 31 26 50.5t71 19.5t73.5 -28.5t28.5 -74.5q0 -129 -143 -178q76 -83 76 -234q0 -153 -102 -242q-101 -89 -275 -89h-29 l-86 -106q4 -31 31.5 -43.5t99.5 -14.5h86q188 0 277.5 -85t89.5 -216q0 -285 -435 -285q-217 0 -326.5 70t-109.5 180.5zM281 -164q0 -201 246.5 -201t246.5 201q0 162 -227 162h-174q-92 -59 -92 -162zM303 637q0 -133 45 -192.5t145.5 -59.5t145.5 59.5t45 192.5 t-45 193.5t-145.5 60.5t-145.5 -60.5t-45 -193.5z" />
<glyph unicode="h" horiz-adv-x="1130" d="M49 0l8 76q86 12 136 51v1034q0 76 -32 103.5t-112 31.5l6 62q74 12 273 69l39 -20v-571q109 139 261 139t235 -75t83 -208v-565q45 -37 144 -57l-9 -70h-450l6 70q78 12 135 57v547q0 203 -174 203q-72 0 -135.5 -48.5t-95.5 -123.5v-578q51 -39 143 -55l-8 -72h-453z " />
<glyph unicode="i" horiz-adv-x="569" d="M70 0l8 74q84 14 135 51v590q0 76 -31.5 103.5t-111.5 31.5l6 59q78 14 270 72l41 -23v-833q51 -37 143 -55l-8 -70h-452zM182 1224.5q0 118.5 107.5 118.5t107.5 -118.5t-107.5 -118.5t-107.5 118.5z" />
<glyph unicode="j" horiz-adv-x="544" d="M-68 -285q0 47 28 80t77 33t74 -41q-31 -25 -31 -61.5t20.5 -58t55.5 -21.5q82 0 82 133q0 68 -12.5 171t-12.5 200v565q0 76 -31.5 103.5t-111.5 31.5l6 59q104 18 272 72l39 -23v-1026q0 -274 -113 -344q-48 -31 -130 -31q-2 0 -3 1q-84 0 -146.5 37.5t-62.5 119.5z M184 1224.5q0 118.5 107.5 118.5t107.5 -118.5t-107.5 -118.5t-107.5 118.5z" />
<glyph unicode="k" horiz-adv-x="1073" d="M49 0l8 76q86 12 136 51v1034q0 76 -32 103.5t-112 31.5l6 62q74 12 273 69l39 -20v-848l280 283q53 57 68 114h272l6 -61q-141 -6 -225 -88l-188 -189l307 -489q74 -41 188 -57l-8 -72h-293l-313 500l-94 -92v-281q51 -39 143 -55l-8 -72h-453z" />
<glyph unicode="l" horiz-adv-x="555" d="M47 0l8 76q86 12 135 51v1034q0 76 -30.5 103.5t-112.5 31.5l6 62q74 12 273 69l39 -20v-1280q51 -39 143 -55l-8 -72h-453z" />
<glyph unicode="m" horiz-adv-x="1703" d="M90 0l8 74q86 14 135 53v584q0 76 -30.5 103.5t-112.5 31.5l6 59q33 6 252 70l37 -19l14 -106q109 125 250 125q188 0 271 -127q139 127 275 127t225 -75t89 -232v-541q49 -37 144 -57l-8 -70h-449l4 70q78 12 135 57v547q0 203 -161 203q-66 0 -123.5 -41t-85.5 -97 v-612q45 -37 143 -57l-8 -70h-451l6 70q78 12 136 57v547q0 203 -162 203q-72 0 -135.5 -50.5t-83.5 -109.5v-590q47 -37 141 -57l-8 -70h-453z" />
<glyph unicode="n" horiz-adv-x="1142" d="M61 0l9 74q88 14 135 53v584q0 76 -32 103.5t-112 31.5l7 59q27 4 249 70l37 -19l19 -127q47 68 119.5 107t150.5 39q150 0 232.5 -75t82.5 -208v-565q45 -37 144 -57l-8 -70h-451l6 70q78 12 135 57v547q0 203 -176 203q-70 0 -133 -48.5t-96 -123.5v-578 q49 -39 143 -57l-8 -70h-453z" />
<glyph unicode="o" horiz-adv-x="1087" d="M109 481.5q0 241.5 109.5 367.5t324.5 126t324.5 -126t109.5 -367.5t-109.5 -368.5t-324.5 -127t-324.5 127t-109.5 368.5zM293 481q0 -213 58.5 -307t191.5 -94t193.5 94t60.5 307t-59.5 306.5t-193.5 93.5t-192.5 -93.5t-58.5 -306.5z" />
<glyph unicode="p" horiz-adv-x="1138" d="M74 -430l8 74q80 10 133 51v1018q0 76 -30.5 103.5t-110.5 31.5l6 59q27 4 250 70l37 -21l18 -125q84 143 268 144q375 0 375 -475q0 -250 -118.5 -382t-344.5 -132q-96 0 -174 32v-323q51 -39 141 -55l-6 -70h-452zM391 113q74 -41 192.5 -41t191.5 112.5t73 313 t-51 295t-160 94.5q-246 0 -246 -385v-389z" />
<glyph unicode="q" horiz-adv-x="1120" d="M123 475q0 229 102.5 364.5t321.5 135.5q123 0 229 -96l33 77h109v-1265q51 -37 143 -56l-8 -69h-453l8 74q82 14 135 51v430q-86 -135 -233 -135q-387 0 -387 489zM307 473q0 -90 6 -151.5t27 -124.5q39 -125 171 -125t182 114.5t50 305.5v292q-100 104 -190 104 q-1 1 -2 1q-89 0 -139 -36q-52 -36 -73.5 -106.5t-26.5 -127t-5 -146.5z" />
<glyph unicode="r" horiz-adv-x="847" d="M94 0l8 74q84 14 136 53v584q0 76 -32 103.5t-112 31.5l6 59q27 4 250 70l37 -19l21 -143q108 162 245 162q74 0 128.5 -43t54.5 -108.5t-30 -104.5t-72 -39t-72.5 17.5t-38.5 45.5q20 20 20 58q0 61 -57.5 61t-115.5 -83t-58 -177v-475q55 -37 161 -57l-8 -70h-471z" />
<glyph unicode="s" horiz-adv-x="880" d="M106 66v251l109 15q12 -150 55 -232q66 -20 154 -20t141 45t53 109.5t-52 103.5t-126.5 62.5t-150.5 53t-128 94t-52 175.5t91 180.5t262 69.5t281 -53l-18 -246h-107q-8 108 -47 162.5t-127 54.5t-135 -37t-47 -100.5t53.5 -104.5t129 -66.5t151.5 -55t129 -92 t53 -156.5q0 -137 -96 -214t-270 -77q-72 0 -165 23.5t-141 54.5z" />
<glyph unicode="t" horiz-adv-x="692" d="M47 846v61q199 68 262 248h82v-199h262v-110h-264v-629q0 -76 19.5 -108.5t89 -32.5t143.5 41l41 -62q-101 -76 -235 -76l-1 1q-134 0 -183.5 57t-49.5 194v615h-166z" />
<glyph unicode="u" horiz-adv-x="1130" d="M49 850l4 59q70 12 273 72l41 -20v-668q0 -215 176 -215q53 0 112.5 40t104.5 122v475q0 76 -32 103.5t-112 31.5l7 59q70 12 272 72l39 -20v-834q45 -39 141 -55l-6 -72h-272l-21 129q-106 -143 -256 -143q-330 0 -330 329v400q0 76 -30.5 103.5t-110.5 31.5z" />
<glyph unicode="v" horiz-adv-x="1032" d="M-2 895l4 61h457l-6 -61q-90 -12 -127 -45l217 -653l217 653q-43 31 -123 45l6 61h389l-6 -61q-123 -25 -137 -61l-311 -834h-138l-297 809q-23 61 -145 86z" />
<glyph unicode="w" horiz-adv-x="1585" d="M20 895l5 61h456l-6 -61q-90 -12 -127 -45l197 -637l229 709h80l250 -711l190 639q-39 31 -120 45l6 61h387l-6 -61q-123 -25 -138 -61l-293 -834h-124l-220 596l-211 -596h-126l-283 809q-23 61 -146 86z" />
<glyph unicode="x" horiz-adv-x="989" d="M-6 0l6 74q111 10 150 53l260 342l-260 354q-43 59 -127 72l6 61h440l-10 -61q-74 -6 -125 -43l188 -254l180 240q-61 47 -137 57l6 61h412l-8 -61q-113 -14 -152 -66l-239 -317l284 -385q39 -41 121 -51l-8 -76h-442l8 74q94 10 129 35l-205 276l-203 -270 q39 -31 138 -41l-7 -74h-405z" />
<glyph unicode="y" horiz-adv-x="1032" d="M-14 893l4 63h446l-6 -61q-78 -6 -121 -45l238 -625l203 625q-45 35 -121 45l4 61h399l-4 -61q-135 -20 -149 -61l-349 -1006q-51 -150 -115.5 -212t-153.5 -62t-142 44t-53 106.5t28.5 93t68.5 30.5t75 -23q-25 -35 -25 -68.5t18.5 -53t55.5 -19.5q76 0 137 186l43 134 l-336 823q-27 66 -145 86z" />
<glyph unicode="z" horiz-adv-x="931" d="M90 78l531 784q-115 8 -194 8t-144 -10q-43 -53 -56 -166q-27 -10 -56.5 -10t-51.5 8l-19 226l52 43l354 -5q170 0 309 5l14 -74l-534 -793q31 -2 167 -2t183 2q49 68 82 189q25 6 45.5 6t52.5 -4l-14 -242l-39 -49q-80 6 -291 6l-375 -8z" />
<glyph unicode="{" horiz-adv-x="792" d="M246 547v69q8 0 29.5 13.5t35.5 29.5q35 41 35 96.5t-26.5 189.5t-26.5 179q0 137 106.5 231.5t249.5 94.5v-68q-98 -8 -151.5 -77.5t-53.5 -146.5t18.5 -174t18.5 -157q0 -166 -94 -245q94 -80 94 -248q0 -59 -18.5 -156.5t-18.5 -174.5t53.5 -147.5t151.5 -74.5v-72 q-143 0 -249.5 95.5t-106.5 232.5q0 43 26.5 178t26.5 186.5t-25.5 88t-50.5 47.5z" />
<glyph unicode="|" horiz-adv-x="647" d="M258 -299v1843h131v-1843h-131z" />
<glyph unicode="}" horiz-adv-x="792" d="M143 -219q98 4 151.5 74.5t53.5 147.5t-18.5 174t-18.5 157q0 168 95 248q-94 80 -95 245q0 59 18.5 156.5t18.5 174.5t-53 146.5t-152 77.5v68q143 0 250 -94t107 -232q0 -45 -27 -179t-27 -175t10.5 -68.5t24.5 -42.5q29 -33 66 -43v-69q-37 -8 -69 -51t-32 -94.5 t27 -186.5t27 -178q0 -137 -106.5 -232.5t-250.5 -95.5v72z" />
<glyph unicode="~" horiz-adv-x="1458" d="M217 537q141 163 303 163q66 0 237 -50t226 -50q102 0 215 82q25 -14 43 -39q-41 -63 -112.5 -116.5t-156.5 -53.5t-259 51t-242 51q-102 0 -211 -81q-27 14 -43 43z" />
<glyph unicode="&#xa1;" horiz-adv-x="585" d="M131 -250q0 70 43 354.5t53 415.5l107 19l-6 -414q0 -328 39 -494q-43 -35 -121 -34q-115 0 -115 153zM166 878.5q0 118.5 108.5 118.5t108.5 -118.5t-108.5 -118.5t-108.5 118.5z" />
<glyph unicode="&#xa2;" horiz-adv-x="903" d="M86 510q0 199 93 316.5t272 138.5v186l12 14q33 0 69 -10v-186q137 -2 223.5 -62.5t86.5 -150.5q0 -47 -32 -82t-74 -35t-70.5 19.5t-38.5 50.5q25 41 24.5 83t-34 70.5t-85.5 32.5v-727q68 2 131.5 26.5t94.5 47.5l30 22l54 -61q-14 -14 -40 -37t-107 -60.5t-163 -39.5 v-185l-12 -12q-25 0 -69 8v191q-180 16 -272.5 129.5t-92.5 312.5zM276 512q0 -295 175 -338v713q-102 -25 -138.5 -120t-36.5 -255z" />
<glyph unicode="&#xa3;" horiz-adv-x="1081" d="M31 125q0 68 52 111t121.5 43t137.5 -23q2 14 2 47q0 109 -59 328h-176q-10 37 -11 67l15 15h151q-39 171 -39 245q0 205 107.5 314.5t304.5 109.5q131 0 230.5 -61t99.5 -180q0 -63 -34 -103.5t-76 -40.5t-73.5 19.5t-42.5 48.5q37 49 37 100.5t-42 85t-115 33.5 q-211 0 -211 -309q0 -102 41 -262h305q10 -41 10 -70l-14 -12h-279q33 -135 33 -229.5t-35 -188.5q158 -57 297 -57q55 0 72.5 29.5t17.5 86.5v37q59 -2 101 -40t42 -99q0 -184 -221 -184q-88 0 -144 26.5t-75 34.5q-43 18 -131 78q-90 -139 -225 -139q-74 0 -124 35.5 t-50 103.5zM125 127q0 -61 78 -61q96 0 127 112q-63 25 -117 25q-88 0 -88 -76z" />
<glyph unicode="&#xa4;" horiz-adv-x="1114" d="M152 215l118 133q-84 96 -84 255t88 259l-122 133l79 78l134 -143q84 45 190.5 45t192.5 -43l135 141l80 -78l-125 -133q88 -104 88 -258.5t-84 -255.5l121 -133l-80 -76l-125 140q-82 -49 -200 -49.5t-204 49.5l-123 -140zM319 602q0 -137 59.5 -213t178.5 -76t177.5 76 t58.5 212t-58.5 213t-177.5 77q-238 0 -238 -289z" />
<glyph unicode="&#xa5;" horiz-adv-x="1247" d="M66 1292l10 74h506q-8 -49 -11 -74q-106 -14 -178 -55l256 -535l262 537q-78 41 -182 53q2 25 10 74h451l-12 -74q-74 -14 -125 -53l-224 -453h215q8 -31 9 -67l-13 -12h-252l-63 -132h319q8 -27 9 -67l-13 -12h-319v-365q70 -39 209 -55l-8 -76h-590l10 76 q127 14 199 55v365h-338q-10 35 -10 67l14 12h317l-65 132h-256q-10 35 -10 67l14 12h211l-225 453q-49 37 -127 53z" />
<glyph unicode="&#xa6;" horiz-adv-x="647" d="M258 -299v729h131v-729h-131zM258 815v729h131v-729h-131z" />
<glyph unicode="&#xa7;" horiz-adv-x="1024" d="M160 1059q0 168 110.5 268t276.5 100t252 -67.5t86 -179.5q0 -63 -29 -100.5t-91.5 -37.5t-100.5 58q45 45 45 110q0 127 -148 127q-141 0 -141 -149q0 -70 27.5 -133.5t60.5 -102.5t96.5 -109.5t85 -97t61.5 -74.5t50 -63.5t38.5 -59.5t37.5 -73q30 -96 30 -172 q0 -168 -113.5 -267t-280.5 -99t-256 65.5t-89 175.5q0 61 30.5 102.5t94 41.5t102.5 -60q-45 -45 -45 -109.5t41 -96t109 -31.5q145 0 145 149q0 141 -151 322q-29 33 -99.5 112.5t-112.5 136t-82 143.5t-40 171zM270 1041.5q0 -91.5 50.5 -176.5t122 -160.5t143.5 -155.5 q170 -193 170 -383q43 53 43 142t-35 168t-87 137.5t-114.5 127t-116 129t-91.5 142.5t-42 168q-43 -47 -43 -138.5z" />
<glyph unicode="&#xa8;" horiz-adv-x="583" d="M25 1238q0 108 96 108t96 -108t-96 -108t-96 108zM367 1238q0 108 94 108q98 0 98 -108t-98 -108q-94 0 -94 108z" />
<glyph unicode="&#xa9;" horiz-adv-x="1742" d="M276 621.5q0 244.5 173.5 417.5t421 173t421.5 -173t174 -416.5t-174 -416.5t-421.5 -173t-421 172t-173.5 416.5zM367 622q0 -212 148.5 -362.5t355 -150.5t355 150.5t148.5 362.5t-148.5 363.5t-355 151.5t-355 -151.5t-148.5 -363.5zM565 616q0 358 322 359 q102 0 166.5 -44t64.5 -114q0 -35 -23.5 -62.5t-56.5 -27.5q-66 0 -80 55q20 31 20.5 60.5t-25 53.5t-66.5 24q-94 0 -137 -73t-43 -230.5t39.5 -225t134.5 -67.5q123 0 170 129l61 -21q-25 -78 -87 -125t-144 -47q-164 0 -240 86t-76 270z" />
<glyph unicode="&#xaa;" horiz-adv-x="854" d="M141 524v70h580v-70h-580zM141 856q0 178 254 201l97 8v98q0 72 -24 103.5t-73 31.5t-75.5 -15t-26.5 -42t22 -51q-6 -63 -75 -64q-35 0 -59.5 20.5t-24.5 57.5q0 72 66.5 115t176 43t170 -53.5t60.5 -145.5v-370q27 -18 96 -33l-6 -53h-207l-12 49q-70 -59 -167 -59.5 t-144.5 41.5t-47.5 118zM281 866q0 -104 84 -104q63 0 127 53v184l-91 -6q-55 -4 -87.5 -39t-32.5 -88z" />
<glyph unicode="&#xab;" horiz-adv-x="999" d="M78 494l328 405l79 -49l-204 -356l204 -355l-79 -51zM461 494l327 405l80 -49l-204 -356l204 -355l-80 -51z" />
<glyph unicode="&#xac;" d="M80 707v108h899v-453h-123v345h-776z" />
<glyph unicode="&#xad;" horiz-adv-x="679" d="M106 473v111h469v-111h-469z" />
<glyph unicode="&#xae;" horiz-adv-x="1742" d="M276 621.5q0 244.5 173.5 417.5t421 173t421.5 -173t174 -416.5t-174 -416.5t-421.5 -173t-421 172t-173.5 416.5zM367 622q0 -212 148.5 -362.5t355 -150.5t355 150.5t148.5 362.5t-148.5 363.5t-355 151.5t-355 -151.5t-148.5 -363.5zM602 328l6 51l82 18v484l-88 24 l6 51h266q229 0 230 -172q0 -119 -127 -153q37 -27 53 -68l76 -166l72 -16l-9 -53h-168l-79 207q-18 49 -40 61t-75 12v-211l86 -18l-6 -51h-285zM807 676h29q150 0 149 108q0 53 -30 82t-81 29h-67v-219z" />
<glyph unicode="&#xaf;" horiz-adv-x="583" d="M6 1167v90h569v-90h-569z" />
<glyph unicode="&#xb0;" horiz-adv-x="768" d="M96 1080.5q0 117.5 82 199.5t206 82t206 -82t82 -199.5t-82 -199.5t-206 -82t-206 82t-82 199.5zM238 1079q0 -90 37.5 -149.5t108.5 -59.5t108.5 59.5t37.5 149.5t-37.5 149.5t-108.5 59.5t-108.5 -59.5t-37.5 -149.5z" />
<glyph unicode="&#xb1;" d="M147 670v108h353v365h123v-365h362v-108h-362v-363h-123v363h-353zM154 55v109h819v-109h-819z" />
<glyph unicode="&#xb2;" horiz-adv-x="833" d="M92 1483q0 90 77 135t200 45t193.5 -60.5t70.5 -170t-84 -224t-279 -268.5h398v-111h-574v86q225 193 311.5 307.5t86.5 217.5q0 141 -132 141q-59 0 -94 -24.5t-35 -62.5t35 -77q-41 -37 -81 -37t-66.5 26t-26.5 77z" />
<glyph unicode="&#xb3;" horiz-adv-x="833" d="M96 997q0 35 23.5 56.5t60.5 21.5t76 -26q-14 -29 -14 -63t37.5 -59.5t102 -25.5t101.5 42t37 119t-60 121t-169 44v73q213 6 213 156q0 125 -121 125q-55 0 -88 -24.5t-33 -56.5t21 -58q-43 -31 -78 -31q-74 0 -74 90q0 68 74 115t185.5 47t182 -57.5t70.5 -149.5 q0 -135 -149 -190q160 -53 159 -207q0 -106 -77.5 -172t-204.5 -66t-201 47t-74 129z" />
<glyph unicode="&#xb4;" horiz-adv-x="583" d="M137 1122l170 238q27 35 60.5 35t56 -21.5t22.5 -53.5t-51 -77l-213 -170z" />
<glyph unicode="&#xb5;" horiz-adv-x="1114" d="M37 850l6 59q68 12 270 72l41 -20v-668q0 -215 176 -215q127 0 218 162v475q0 76 -32 103.5t-112 31.5l6 59q70 12 273 72l39 -20v-834q47 -39 143 -55l-8 -72h-273l-20 129q-109 -143 -256 -143q-80 0 -154 24v-430h-176v1135q0 76 -30.5 103.5t-110.5 31.5z" />
<glyph unicode="&#xb6;" horiz-adv-x="1204" d="M137 992.5q0 193.5 125 273.5t354 80h451l-10 -76q-119 -14 -185 -56v-1214q0 -96 -26.5 -167t-64.5 -107.5t-89 -59.5q-72 -33 -157 -33q-236 0 -236 168q0 55 30.5 89t82 34t75.5 -51q-37 -33 -36.5 -77t24 -66.5t61 -22.5t59 31t21.5 76v829q-231 0 -355 78 t-124 271.5zM340 993q0 -125 74.5 -192.5t201.5 -67.5v522q-276 0 -276 -262zM682 -270q106 31 106 174v1349l-73 7v-1420q0 -78 -33 -110z" />
<glyph unicode="&#xb7;" horiz-adv-x="577" d="M180 600q0 119 108.5 119t108.5 -119t-108.5 -119t-108.5 119z" />
<glyph unicode="&#xb8;" horiz-adv-x="583" d="M92 -293q0 43 18.5 66.5t43 23.5t43.5 -8q-8 -29 -8.5 -56.5t26.5 -55t66 -27.5q88 0 88 102q0 76 -113 92l-37 41l82 133l53 -10l-37 -102q76 -15 116 -51.5t40 -107.5t-55.5 -118t-143.5 -47t-135 41t-47 84z" />
<glyph unicode="&#xb9;" horiz-adv-x="833" d="M182 829l4 62q127 14 183 35v596h-181v73q143 12 261 68l53 -21v-716q57 -27 168 -35l-6 -62h-482z" />
<glyph unicode="&#xba;" horiz-adv-x="876" d="M135 524v70h588v-70h-588zM135 1028q0 162 74 248t218 86t219 -86t75 -248q0 -332 -295 -332q-291 0 -291 332zM276 1028q0 -137 36 -198.5t115 -61.5t116 61.5t37 198.5t-37 198.5t-116 61.5t-115 -61.5t-36 -198.5z" />
<glyph unicode="&#xbb;" horiz-adv-x="999" d="M131 139l203 355l-203 356l80 49l328 -405l-328 -406zM514 139l203 355l-203 356l80 49l328 -405l-328 -406z" />
<glyph unicode="&#xbc;" horiz-adv-x="1771" d="M184 1247v58q139 25 236 71l51 -20v-662l129 -32l-4 -58h-401l6 58l141 32v553h-158zM475 -12l635 1405l104 -47l-636 -1412zM1044 252l332 508h137v-475h111v-82h-111v-117q29 -14 103 -27l-8 -59h-338l10 59q76 12 104 27v117h-329zM1171 285h213v329z" />
<glyph unicode="&#xbd;" horiz-adv-x="1822" d="M176 1247v58q139 25 236 71l51 -20v-662l129 -32l-4 -58h-402l7 58l141 32v553h-158zM512 -12l635 1405l104 -47l-637 -1412zM1137 0v82q215 178 295.5 282.5t80.5 198.5q0 129 -120 129q-55 0 -86 -28.5t-31 -67.5t27 -78q-33 -33 -74 -33t-65.5 25t-24.5 87t75.5 118.5 t187 56.5t181.5 -58.5t70 -157.5t-80 -203.5t-268 -246.5h381v-106h-549z" />
<glyph unicode="&#xbe;" horiz-adv-x="1771" d="M127 774q0 37 24.5 56.5t59.5 19.5t72 -27q-12 -31 -12.5 -65.5t33.5 -61t93 -26.5q131 0 131 139q0 72 -54 114t-157 44h-8v63q205 6 205 152q0 51 -29.5 79.5t-83 28.5t-82 -26.5t-28.5 -58t14 -54.5q-37 -29 -72.5 -29t-55 23.5t-19.5 64.5q0 68 69.5 114t178 46 t175 -52t66.5 -136q0 -125 -147 -181q166 -47 166 -192q0 -94 -77 -156.5t-198 -62.5t-192.5 51t-71.5 133zM494 -12l634 1405l105 -47l-637 -1412zM1044 252l332 508h137v-475h111v-82h-111v-117q29 -14 103 -27l-8 -59h-338l10 59q76 12 104 27v117h-329zM1171 285h213 v329z" />
<glyph unicode="&#xbf;" horiz-adv-x="864" d="M88 -131q0 78 34 146.5t82 115.5t97 90q117 106 117 195q0 39 -12 88q43 35 90 35t73.5 -37t26.5 -101.5t-36 -126t-87 -105.5t-100 -87q-123 -109 -123 -238q0 -68 48 -107.5t114.5 -39.5t107.5 25.5t41 70.5t-22 82q43 61 98 62q100 0 100 -111t-94 -164t-232.5 -53 t-230.5 62.5t-92 197.5zM371 878.5q0 118.5 108.5 118.5t108.5 -118.5t-108.5 -118.5t-108.5 118.5z" />
<glyph unicode="&#xc0;" horiz-adv-x="1275" d="M27 0l10 76q92 14 145 53l383 1237h123l422 -1239q51 -37 135 -51l-8 -76h-512l10 76q119 14 189 55l-105 309h-413l-95 -309q68 -39 199 -55l-8 -76h-475zM428 1672q0 32 22.5 53.5t56.5 21.5t60 -35l170 -237l-49 -50l-209 170q-51 45 -51 77zM438 547h346l-180 534z " />
<glyph unicode="&#xc1;" horiz-adv-x="1275" d="M27 0l10 76q92 14 145 53l383 1237h123l422 -1239q51 -37 135 -51l-8 -76h-512l10 76q119 14 189 55l-105 309h-413l-95 -309q68 -39 199 -55l-8 -76h-475zM438 547h346l-180 534zM561 1475l170 237q27 35 60.5 35t56 -21.5t22.5 -53.5t-51 -77l-213 -170z" />
<glyph unicode="&#xc2;" horiz-adv-x="1275" d="M27 0l10 76q92 14 145 53l383 1237h123l422 -1239q51 -37 135 -51l-8 -76h-512l10 76q119 14 189 55l-105 309h-413l-95 -309q68 -39 199 -55l-8 -76h-475zM381 1475l190 219q29 33 65 32.5t62 -32.5l189 -219l-47 -50l-207 158l-207 -158zM438 547h346l-180 534z" />
<glyph unicode="&#xc3;" horiz-adv-x="1275" d="M27 0l10 76q92 14 145 53l383 1237h123l422 -1239q51 -37 135 -51l-8 -76h-512l10 76q119 14 189 55l-105 309h-413l-95 -309q68 -39 199 -55l-8 -76h-475zM313 1520q23 57 76 108t114.5 51t135.5 -35.5t123 -35.5t125 75q35 -12 67 -38q-25 -57 -79 -110.5t-114.5 -53.5 t-134 35.5t-124.5 35.5t-123 -71q-33 8 -66 39zM438 547h346l-180 534z" />
<glyph unicode="&#xc4;" horiz-adv-x="1275" d="M27 0l10 76q92 14 145 53l383 1237h123l422 -1239q51 -37 135 -51l-8 -76h-512l10 76q119 14 189 55l-105 309h-413l-95 -309q68 -39 199 -55l-8 -76h-475zM367 1598.5q0 107.5 96 107.5t96 -107.5t-96 -107.5t-96 107.5zM438 547h346l-180 534zM709 1598.5 q0 107.5 94 107.5q98 0 98 -107.5t-98 -107.5q-94 0 -94 107.5z" />
<glyph unicode="&#xc5;" horiz-adv-x="1275" d="M27 0l10 76q92 14 145 53l383 1237h123l422 -1239q51 -37 135 -51l-8 -76h-512l10 76q119 14 189 55l-105 309h-413l-95 -309q68 -39 199 -55l-8 -76h-475zM438 547h346l-180 534zM459 1592.5q0 74.5 47 121.5t126 47t128 -48t49 -121.5t-49 -121t-127 -47.5t-126 47.5 t-48 122zM545 1591q0 -37 25.5 -62.5t62.5 -25.5t64.5 26.5t27.5 62.5t-27.5 63.5t-64.5 27.5t-62.5 -27.5t-25.5 -64.5z" />
<glyph unicode="&#xc6;" horiz-adv-x="1773" d="M39 0l12 76q76 12 129 49l651 1241h777l18 -311q-27 -10 -46 -10.5t-40 4.5q-25 131 -86 208h-387v-512l229 11q82 2 119 137h62v-406h-62l-20 62q-23 59 -48.5 73.5t-52.5 16.5l-227 12v-532h436q61 86 88 231q29 4 41.5 4t40.5 -4l-18 -350h-969l12 76q115 14 189 55 v424h-344l-221 -424q66 -39 202 -55l-8 -76h-477zM594 651h293v557z" />
<glyph unicode="&#xc7;" horiz-adv-x="1150" d="M131 693q0 347 130 519t401 172q176 0 291.5 -76.5t115.5 -193.5q0 -68 -35 -115t-80 -47t-77.5 22.5t-45.5 57.5q39 53 39 109.5t-57 94.5t-151 38q-166 0 -246 -144.5t-80 -443.5t79 -438t247 -139q106 0 207.5 50t152.5 117l72 -77q-18 -25 -67.5 -67t-95.5 -70.5 t-119 -51t-146 -24.5l-29 -80q76 -14 116 -51t40 -108t-55.5 -118t-143.5 -47t-135 41t-47 84t18.5 66.5t43 23.5t42.5 -8q-8 -29 -8 -56.5t26.5 -55t65.5 -27.5q88 0 88 102q0 76 -113 92l-36 41l63 103q-242 16 -356.5 187t-114.5 518z" />
<glyph unicode="&#xc8;" horiz-adv-x="1177" d="M63 0l13 76q137 16 188 55v1106q-78 41 -201 55q8 49 11 74h913l17 -311q-27 -10 -47.5 -10.5t-41.5 4.5q-27 135 -86 208h-385v-512l232 11q80 2 115 137h65v-406h-65q-10 49 -20.5 74t-36 50.5t-60.5 27.5l-230 12v-532h437q61 86 88 231q25 4 37 4t45 -4l-19 -350 h-969zM352 1692.5q0 31.5 22.5 53t56.5 21.5t61 -34l170 -238l-50 -49l-209 170q-51 45 -51 76.5z" />
<glyph unicode="&#xc9;" horiz-adv-x="1177" d="M63 0l13 76q137 16 188 55v1106q-78 41 -201 55q8 49 11 74h913l17 -311q-27 -10 -47.5 -10.5t-41.5 4.5q-27 135 -86 208h-385v-512l232 11q80 2 115 137h65v-406h-65q-10 49 -20.5 74t-36 50.5t-60.5 27.5l-230 12v-532h437q61 86 88 231q25 4 37 4t45 -4l-19 -350 h-969zM485 1495l170 238q27 35 61 34.5t56.5 -22t22.5 -53t-52 -76.5l-213 -170z" />
<glyph unicode="&#xca;" horiz-adv-x="1177" d="M63 0l13 76q137 16 188 55v1106q-78 41 -201 55q8 49 11 74h913l17 -311q-27 -10 -47.5 -10.5t-41.5 4.5q-27 135 -86 208h-385v-512l232 11q80 2 115 137h65v-406h-65q-10 49 -20.5 74t-36 50.5t-60.5 27.5l-230 12v-532h437q61 86 88 231q25 4 37 4t45 -4l-19 -350 h-969zM305 1495l191 219q29 33 64.5 33t62.5 -33l188 -219l-47 -49l-207 158l-207 -158z" />
<glyph unicode="&#xcb;" horiz-adv-x="1177" d="M63 0l13 76q137 16 188 55v1106q-78 41 -201 55q8 49 11 74h913l17 -311q-27 -10 -47.5 -10.5t-41.5 4.5q-27 135 -86 208h-385v-512l232 11q80 2 115 137h65v-406h-65q-10 49 -20.5 74t-36 50.5t-60.5 27.5l-230 12v-532h437q61 86 88 231q25 4 37 4t45 -4l-19 -350 h-969zM291 1598.5q0 107.5 96 107.5t96 -107.5t-96 -107.5t-96 107.5zM633 1598.5q0 107.5 94 107.5q98 0 98 -107.5t-98 -107.5q-94 0 -94 107.5z" />
<glyph unicode="&#xcc;" horiz-adv-x="663" d="M41 0l12 76q119 14 189 55v1106q-80 41 -201 55q8 49 10 74h567q-2 -25 -10 -74q-111 -14 -186 -55v-1106q68 -39 199 -55l-11 -76h-569zM125 1692.5q0 31.5 22.5 53t56.5 21.5t60 -34l170 -238l-49 -49l-209 170q-51 45 -51 76.5z" />
<glyph unicode="&#xcd;" horiz-adv-x="663" d="M41 0l12 76q119 14 189 55v1106q-80 41 -201 55q8 49 10 74h567q-2 -25 -10 -74q-111 -14 -186 -55v-1106q68 -39 199 -55l-11 -76h-569zM258 1495l170 238q27 35 60.5 34.5t56 -22t22.5 -53t-51 -76.5l-213 -170z" />
<glyph unicode="&#xce;" horiz-adv-x="663" d="M41 0l12 76q119 14 189 55v1106q-80 41 -201 55q8 49 10 74h567q-2 -25 -10 -74q-111 -14 -186 -55v-1106q68 -39 199 -55l-11 -76h-569zM78 1495l190 219q29 33 65 33t62 -33l189 -219l-47 -49l-207 158l-207 -158z" />
<glyph unicode="&#xcf;" horiz-adv-x="663" d="M41 0l12 76q119 14 189 55v1106q-80 41 -201 55q8 49 10 74h567q-2 -25 -10 -74q-111 -14 -186 -55v-1106q68 -39 199 -55l-11 -76h-569zM63 1598.5q0 107.5 96.5 107.5t96.5 -107.5t-96.5 -107.5t-96.5 107.5zM406 1598.5q0 107.5 94 107.5q98 0 98 -107.5t-98 -107.5 q-94 0 -94 107.5z" />
<glyph unicode="&#xd0;" horiz-adv-x="1361" d="M86 1292l10 74h441q358 0 536 -164t178 -521t-179 -519t-548 -162h-436l10 76q125 16 187 53v494h-162v90h162v524q-72 39 -199 55zM467 109q35 -8 92 -9q246 0 367 132.5t121 450.5t-119 449.5t-363 131.5h-98v-551h225v-90h-225v-514z" />
<glyph unicode="&#xd1;" horiz-adv-x="1394" d="M51 0l12 76q119 14 189 55v1106q-80 41 -201 55q8 49 10 74h326l645 -975v846q-72 39 -196 55q2 25 10 74h518q-8 -49 -10 -74q-113 -12 -189 -55v-1237h-88l-696 1055v-924q68 -39 199 -55l-9 -76h-520zM387 1540q23 57 76 108.5t114.5 51.5t135 -36t123 -36t125.5 76 q35 -12 67 -39q-25 -57 -79 -110.5t-114.5 -53.5t-134 36t-125 36t-122.5 -72q-33 8 -66 39z" />
<glyph unicode="&#xd2;" horiz-adv-x="1337" d="M109 685q0 339 130 519t430 180t430 -181t130 -520t-130 -518t-430 -179t-430 180t-130 519zM315 684q0 -254 62 -414q35 -90 108.5 -137t174 -47t165 33t102.5 85t59.5 134t28.5 161t7 183t-7 184t-28.5 162t-60.5 135q-86 119 -256 119q-221 0 -293 -184 q-61 -156 -62 -414zM463 1692.5q0 31.5 22.5 53t56 21.5t60.5 -34l170 -238l-49 -49l-209 170q-51 45 -51 76.5z" />
<glyph unicode="&#xd3;" horiz-adv-x="1337" d="M109 685q0 339 130 519t430 180t430 -181t130 -520t-130 -518t-430 -179t-430 180t-130 519zM315 684q0 -254 62 -414q35 -90 108.5 -137t174 -47t165 33t102.5 85t59.5 134t28.5 161t7 183t-7 184t-28.5 162t-60.5 135q-86 119 -256 119q-221 0 -293 -184 q-61 -156 -62 -414zM596 1495l170 238q27 35 60.5 34.5t56 -22t22.5 -53t-51 -76.5l-213 -170z" />
<glyph unicode="&#xd4;" horiz-adv-x="1337" d="M109 685q0 339 130 519t430 180t430 -181t130 -520t-130 -518t-430 -179t-430 180t-130 519zM315 684q0 -254 62 -414q35 -90 108.5 -137t174 -47t165 33t102.5 85t59.5 134t28.5 161t7 183t-7 184t-28.5 162t-60.5 135q-86 119 -256 119q-221 0 -293 -184 q-61 -156 -62 -414zM416 1495l190 219q29 33 65 33t62 -33l189 -219l-48 -49l-206 158l-207 -158z" />
<glyph unicode="&#xd5;" horiz-adv-x="1337" d="M109 685q0 339 130 519t430 180t430 -181t130 -520t-130 -518t-430 -179t-430 180t-130 519zM315 684q0 -254 62 -414q35 -90 108.5 -137t174 -47t165 33t102.5 85t59.5 134t28.5 161t7 183t-7 184t-28.5 162t-60.5 135q-86 119 -256 119q-221 0 -293 -184 q-61 -156 -62 -414zM348 1540q23 57 76 108.5t114.5 51.5t135.5 -36t123 -36t125 76q35 -12 67 -39q-25 -57 -79 -110.5t-113.5 -53.5t-135 36t-126 36t-121.5 -72q-33 8 -66 39z" />
<glyph unicode="&#xd6;" horiz-adv-x="1337" d="M109 685q0 339 130 519t430 180t430 -181t130 -520t-130 -518t-430 -179t-430 180t-130 519zM315 684q0 -254 62 -414q35 -90 108.5 -137t174 -47t165 33t102.5 85t59.5 134t28.5 161t7 183t-7 184t-28.5 162t-60.5 135q-86 119 -256 119q-221 0 -293 -184 q-61 -156 -62 -414zM401 1598.5q0 107.5 96.5 107.5t96.5 -107.5t-96.5 -107.5t-96.5 107.5zM743.5 1598.5q-0.5 107.5 94.5 107.5q98 0 98 -107.5t-98 -107.5q-94 0 -94.5 107.5z" />
<glyph unicode="&#xd7;" d="M166 274l315 312l-309 307l84 86l309 -307l312 307l84 -86l-308 -307l316 -312l-84 -86l-320 312l-315 -312z" />
<glyph unicode="&#xd8;" horiz-adv-x="1337" d="M117 -8l129 176q-127 170 -127 513t130 523t431 180q229 0 367 -114l96 131h14q20 -10 53 -49l-104 -144q133 -174 133 -519t-130 -524t-429 -179q-244 0 -377 120l-119 -161l-14 -2q-23 14 -53 49zM326 635q0 -182 36 -305l588 809q-84 143 -270 143q-221 0 -293 -184 q-35 -88 -48 -184.5t-13 -278.5zM399 240q86 -154 281 -154q250 0 315 252q37 137 37 360.5t-43 350.5z" />
<glyph unicode="&#xd9;" horiz-adv-x="1327" d="M-16 1292l8 74h573l-12 -74q-117 -20 -184 -55v-807q0 -180 74.5 -259t235.5 -79t247 90t86 260v795q-76 41 -199 55q2 25 10 74h518l-10 -74q-121 -20 -188 -55v-795q0 -219 -120 -337.5t-362.5 -118.5t-360.5 106.5t-118 337.5v807q-80 41 -198 55zM457 1692.5 q0 31.5 22.5 53t56 21.5t60.5 -34l170 -238l-49 -49l-209 170q-51 45 -51 76.5z" />
<glyph unicode="&#xda;" horiz-adv-x="1327" d="M-16 1292l8 74h573l-12 -74q-117 -20 -184 -55v-807q0 -180 74.5 -259t235.5 -79t247 90t86 260v795q-76 41 -199 55q2 25 10 74h518l-10 -74q-121 -20 -188 -55v-795q0 -219 -120 -337.5t-362.5 -118.5t-360.5 106.5t-118 337.5v807q-80 41 -198 55zM590 1495l170 238 q27 35 60.5 34.5t56 -22t22.5 -53t-51 -76.5l-213 -170z" />
<glyph unicode="&#xdb;" horiz-adv-x="1327" d="M-16 1292l8 74h573l-12 -74q-117 -20 -184 -55v-807q0 -180 74.5 -259t235.5 -79t247 90t86 260v795q-76 41 -199 55q2 25 10 74h518l-10 -74q-121 -20 -188 -55v-795q0 -219 -120 -337.5t-362.5 -118.5t-360.5 106.5t-118 337.5v807q-80 41 -198 55zM410 1495l190 219 q29 33 64.5 33t62.5 -33l188 -219l-47 -49l-206 158l-207 -158z" />
<glyph unicode="&#xdc;" horiz-adv-x="1327" d="M-16 1292l8 74h573l-12 -74q-117 -20 -184 -55v-807q0 -180 74.5 -259t235.5 -79t247 90t86 260v795q-76 41 -199 55q2 25 10 74h518l-10 -74q-121 -20 -188 -55v-795q0 -219 -120 -337.5t-362.5 -118.5t-360.5 106.5t-118 337.5v807q-80 41 -198 55zM395 1598.5 q0 107.5 96.5 107.5t96.5 -107.5t-96.5 -107.5t-96.5 107.5zM737 1598.5q0 107.5 94 107.5q98 0 98 -107.5t-98 -107.5q-94 0 -94 107.5z" />
<glyph unicode="&#xdd;" horiz-adv-x="1167" d="M23 1292l10 74h506q-8 -49 -11 -74q-106 -14 -178 -55l256 -535l262 537q-78 41 -182 53q2 25 10 74h451l-12 -74q-74 -14 -125 -53l-332 -672v-436q70 -39 209 -55l-8 -76h-590l10 76q127 14 199 55v412l-348 696q-49 37 -127 53zM532 1495l170 238q27 35 61 34.5 t56.5 -22t22.5 -53t-51 -76.5l-213 -170z" />
<glyph unicode="&#xde;" horiz-adv-x="1175" d="M100 0l13 76q119 14 188 55v1106q-80 41 -201 55q8 49 11 74h567q-2 -25 -10 -74q-111 -14 -187 -55v-164h156q449 0 448 -375q0 -211 -137 -296t-399 -85h-68v-186q68 -39 199 -55l-10 -76h-570zM481 410h68q352 0 352 292q0 141 -68.5 213t-195.5 72q-86 0 -156 -12 v-565z" />
<glyph unicode="&#xdf;" horiz-adv-x="1239" d="M104 0l9 74q88 14 135 53v928q0 172 99 261t274.5 89t280 -76t104.5 -233q0 -98 -79 -189.5t-204 -146.5q188 -41 297.5 -149.5t109.5 -262t-99 -256t-249 -102.5q-274 0 -274 166q0 53 31.5 85.5t75.5 32.5t83 -20q-18 -43 -18 -83t27.5 -66.5t78.5 -26.5q76 0 120 73.5 t44 211t-91 219.5t-290 110v109q98 16 177 109.5t79 194.5t-50 160.5t-148 59.5q-154 0 -189 -154q-16 -82 -16 -208v-963h-318z" />
<glyph unicode="&#xe0;" horiz-adv-x="999" d="M90 230.5q0 121.5 98.5 198.5t284.5 89l168 12v166q0 102 -43 149.5t-139 47.5q-170 0 -170 -92q0 -53 61 -76q0 -98 -117 -98q-53 0 -85.5 32.5t-32.5 85.5q0 104 93 167t256 63t257 -74t94 -205v-571q47 -35 143 -55l-8 -70h-282l-21 92q-115 -106 -291 -106 q-127 0 -196.5 61.5t-69.5 183zM262 1283q0 32 22.5 53.5t56.5 21.5t60 -35l170 -238l-49 -49l-209 170q-51 45 -51 77zM270 238q0 -168 138 -168q109 0 233 118v258l-164 -14q-96 -8 -151.5 -60t-55.5 -134z" />
<glyph unicode="&#xe1;" horiz-adv-x="999" d="M90 230.5q0 121.5 98.5 198.5t284.5 89l168 12v166q0 102 -43 149.5t-139 47.5q-170 0 -170 -92q0 -53 61 -76q0 -98 -117 -98q-53 0 -85.5 32.5t-32.5 85.5q0 104 93 167t256 63t257 -74t94 -205v-571q47 -35 143 -55l-8 -70h-282l-21 92q-115 -106 -291 -106 q-127 0 -196.5 61.5t-69.5 183zM270 238q0 -168 138 -168q109 0 233 118v258l-164 -14q-96 -8 -151.5 -60t-55.5 -134zM395 1085l170 238q27 35 60.5 35t56.5 -21.5t23 -53.5t-52 -77l-213 -170z" />
<glyph unicode="&#xe2;" horiz-adv-x="999" d="M90 230.5q0 121.5 98.5 198.5t284.5 89l168 12v166q0 102 -43 149.5t-139 47.5q-170 0 -170 -92q0 -53 61 -76q0 -98 -117 -98q-53 0 -85.5 32.5t-32.5 85.5q0 104 93 167t256 63t257 -74t94 -205v-571q47 -35 143 -55l-8 -70h-282l-21 92q-115 -106 -291 -106 q-127 0 -196.5 61.5t-69.5 183zM215 1085l191 220q29 33 64.5 32.5t61.5 -32.5l189 -220l-47 -49l-207 158l-207 -158zM270 238q0 -168 138 -168q109 0 233 118v258l-164 -14q-96 -8 -151.5 -60t-55.5 -134z" />
<glyph unicode="&#xe3;" horiz-adv-x="999" d="M90 230.5q0 121.5 98.5 198.5t284.5 89l168 12v166q0 102 -43 149.5t-139 47.5q-170 0 -170 -92q0 -53 61 -76q0 -98 -117 -98q-53 0 -85.5 32.5t-32.5 85.5q0 104 93 167t256 63t257 -74t94 -205v-571q47 -35 143 -55l-8 -70h-282l-21 92q-115 -106 -291 -106 q-127 0 -196.5 61.5t-69.5 183zM147 1130q23 58 76 109t114.5 51t135.5 -35.5t123 -35.5t125 75q35 -12 67 -39q-25 -57 -79 -110t-113 -53t-135 35.5t-126 35.5t-122 -71q-33 8 -66 38zM270 238q0 -168 138 -168q109 0 233 118v258l-164 -14q-96 -8 -151.5 -60t-55.5 -134z " />
<glyph unicode="&#xe4;" horiz-adv-x="999" d="M90 230.5q0 121.5 98.5 198.5t284.5 89l168 12v166q0 102 -43 149.5t-139 47.5q-170 0 -170 -92q0 -53 61 -76q0 -98 -117 -98q-53 0 -85.5 32.5t-32.5 85.5q0 104 93 167t256 63t257 -74t94 -205v-571q47 -35 143 -55l-8 -70h-282l-21 92q-115 -106 -291 -106 q-127 0 -196.5 61.5t-69.5 183zM201 1213.5q0 107.5 96 107.5t96 -107.5t-96 -107.5t-96 107.5zM270 238q0 -168 138 -168q109 0 233 118v258l-164 -14q-96 -8 -151.5 -60t-55.5 -134zM543 1213.5q0 107.5 94 107.5q98 0 98 -107.5t-98 -107.5q-94 0 -94 107.5z" />
<glyph unicode="&#xe5;" horiz-adv-x="999" d="M84 230.5q0 121.5 98.5 198.5t284.5 89l168 12v166q0 102 -43 149.5t-139 47.5q-170 0 -170 -92q0 -53 61 -76q0 -98 -117 -98q-53 0 -85.5 32.5t-32.5 85.5q0 104 93 167t256 63t257 -74t94 -205v-571q47 -35 143 -55l-8 -70h-282l-21 92q-115 -106 -291 -106 q-127 0 -196.5 61.5t-69.5 183zM264 238q0 -168 137 -168q109 0 234 118v258l-164 -14q-96 -8 -151.5 -60t-55.5 -134zM293 1203q0 75 48 122t126 47t127 -48t49 -122t-49 -121t-127 -47t-126 47t-48 122zM379 1202q0 -37 25.5 -62.5t62.5 -25.5t64.5 26.5t27.5 62.5 t-27.5 63.5t-64.5 27.5t-62.5 -27.5t-25.5 -64.5z" />
<glyph unicode="&#xe6;" horiz-adv-x="1540" d="M104 230.5q0 121.5 98.5 198.5t284.5 89l166 12v166q0 102 -43 149.5t-131 47.5t-133 -24.5t-45 -72.5t64 -71q0 -98 -117 -98q-53 0 -86 32.5t-33 85.5q0 104 93 167t251 63q215 0 303 -117q111 117 310.5 117t281.5 -106.5t88 -315.5l-43 -55h-569v-11q0 -250 63 -327 q59 -74 189 -74q68 0 133 24.5t98 49.5l31 22l51 -61q-14 -14 -41 -37t-110.5 -60.5t-170.5 -37.5q-252 0 -352 153q-164 -154 -364 -153q-127 0 -197 61.5t-70 183zM285 238q0 -168 137 -168q106 0 231 118v258l-161 -14q-96 -8 -151.5 -60t-55.5 -134zM844 573l428 15 q0 160 -42 232.5t-155 72.5q-225 0 -231 -320z" />
<glyph unicode="&#xe7;" horiz-adv-x="903" d="M86 487q6 488 440 488q141 0 228.5 -60.5t87.5 -156.5q0 -47 -32 -84t-74 -37t-70.5 20.5t-38.5 53.5q27 43 26.5 85t-35 73.5t-101 31.5t-119 -32.5t-79.5 -94.5q-43 -106 -43 -245.5t8.5 -203t32.5 -122.5q49 -117 211 -117q68 0 133.5 24.5t96.5 49.5l30 22l54 -61 q-14 -14 -40 -36t-107 -59.5t-163 -39.5l-28 -80q76 -14 115.5 -51t39.5 -108t-55 -118t-143 -47t-135 41t-47 84t18 66.5t43 23.5t43 -8q-8 -29 -8 -56.5t27.5 -55t64.5 -27.5q88 0 88 102q0 76 -113 92l-36 41l61 103q-203 12 -292 137t-89 362z" />
<glyph unicode="&#xe8;" horiz-adv-x="999" d="M123 476.5q0 238.5 109.5 368.5t315.5 130t288 -106.5t88 -315.5l-43 -55h-570v-11q0 -250 64 -327q59 -74 188 -74q68 0 133.5 24.5t98.5 49.5l30 22l52 -61q-14 -14 -41 -37t-111 -60.5t-170 -37.5q-233 0 -332.5 126t-99.5 364.5zM311 573l428 15q0 162 -41.5 233.5 t-154.5 71.5q-225 0 -232 -320zM317.5 1283q-0.5 32 22 53.5t56.5 21.5t61 -35l170 -238l-49 -49l-209 170q-51 45 -51.5 77z" />
<glyph unicode="&#xe9;" horiz-adv-x="999" d="M123 476.5q0 238.5 109.5 368.5t315.5 130t288 -106.5t88 -315.5l-43 -55h-570v-11q0 -250 64 -327q59 -74 188 -74q68 0 133.5 24.5t98.5 49.5l30 22l52 -61q-14 -14 -41 -37t-111 -60.5t-170 -37.5q-233 0 -332.5 126t-99.5 364.5zM311 573l428 15q0 162 -41.5 233.5 t-154.5 71.5q-225 0 -232 -320zM451 1085l170 238q27 35 60.5 35t56 -21.5t22.5 -53.5t-51 -77l-213 -170z" />
<glyph unicode="&#xea;" horiz-adv-x="999" d="M123 476.5q0 238.5 109.5 368.5t315.5 130t288 -106.5t88 -315.5l-43 -55h-570v-11q0 -250 64 -327q59 -74 188 -74q68 0 133.5 24.5t98.5 49.5l30 22l52 -61q-14 -14 -41 -37t-111 -60.5t-170 -37.5q-233 0 -332.5 126t-99.5 364.5zM270 1085l191 220q29 33 64.5 32.5 t62.5 -32.5l188 -220l-47 -49l-207 158l-207 -158zM311 573l428 15q0 162 -41.5 233.5t-154.5 71.5q-225 0 -232 -320z" />
<glyph unicode="&#xeb;" horiz-adv-x="999" d="M123 476.5q0 238.5 109.5 368.5t315.5 130t288 -106.5t88 -315.5l-43 -55h-570v-11q0 -250 64 -327q59 -74 188 -74q68 0 133.5 24.5t98.5 49.5l30 22l52 -61q-14 -14 -41 -37t-111 -60.5t-170 -37.5q-233 0 -332.5 126t-99.5 364.5zM256 1213.5q0 107.5 96.5 107.5 t96.5 -107.5t-96.5 -107.5t-96.5 107.5zM311 573l428 15q0 162 -41.5 233.5t-154.5 71.5q-225 0 -232 -320zM598 1213.5q0 107.5 94 107.5q98 0 98 -107.5t-98 -107.5q-94 0 -94 107.5z" />
<glyph unicode="&#xec;" horiz-adv-x="569" d="M70 0l8 74q84 14 135 51v590q0 76 -31.5 103.5t-111.5 31.5l6 59q78 14 270 72l41 -23v-833q51 -37 143 -55l-8 -70h-452zM78 1283q0 32 22.5 53.5t56 21.5t60.5 -35l170 -238l-49 -49l-209 170q-51 45 -51 77z" />
<glyph unicode="&#xed;" horiz-adv-x="569" d="M70 0l8 74q84 14 135 51v590q0 76 -31.5 103.5t-111.5 31.5l6 59q78 14 270 72l41 -23v-833q51 -37 143 -55l-8 -70h-452zM211 1085l170 238q27 35 60.5 35t56 -21.5t22.5 -53.5t-51 -77l-213 -170z" />
<glyph unicode="&#xee;" horiz-adv-x="569" d="M31 1085l190 220q29 33 65 32.5t62 -32.5l189 -220l-48 -49l-206 158l-207 -158zM70 0l8 74q84 14 135 51v590q0 76 -31.5 103.5t-111.5 31.5l6 59q78 14 270 72l41 -23v-833q51 -37 143 -55l-8 -70h-452z" />
<glyph unicode="&#xef;" horiz-adv-x="569" d="M16 1213.5q0 107.5 96.5 107.5t96.5 -107.5t-96.5 -107.5t-96.5 107.5zM70 0l8 74q84 14 135 51v590q0 76 -31.5 103.5t-111.5 31.5l6 59q78 14 270 72l41 -23v-833q51 -37 143 -55l-8 -70h-452zM297 1213.5q0 107.5 94 107.5q98 0 98 -107.5t-98 -107.5q-94 0 -94 107.5 z" />
<glyph unicode="&#xf0;" horiz-adv-x="1085" d="M115 471q0 240 115.5 372t334.5 132q88 0 162 -31q-49 137 -158 230l-301 -115l-35 82l244 98q-57 39 -194 94l34 88q199 -72 289 -131l234 94l41 -92l-176 -65q133 -106 194.5 -264t61.5 -396v-86q0 -242 -108 -368.5t-316.5 -126.5t-315 122.5t-106.5 362.5zM295 465 q0 -199 57.5 -292t185.5 -93t185 94t57 318.5t-22 343.5q-86 53 -205 53t-188.5 -112.5t-69.5 -311.5z" />
<glyph unicode="&#xf1;" horiz-adv-x="1142" d="M61 0l9 74q88 14 135 53v584q0 76 -32 103.5t-112 31.5l7 59q27 4 249 70l37 -19l19 -127q47 68 119.5 107t150.5 39q150 0 232.5 -75t82.5 -208v-565q45 -37 144 -57l-8 -70h-451l6 70q78 12 135 57v547q0 203 -176 203q-70 0 -133 -48.5t-96 -123.5v-578 q49 -39 143 -57l-8 -70h-453zM262 1130q23 58 76 109t114.5 51t135.5 -35.5t123 -35.5t125 75q35 -12 67 -39q-25 -57 -79 -110t-113.5 -53t-135 35.5t-126 35.5t-121.5 -71q-33 8 -66 38z" />
<glyph unicode="&#xf2;" horiz-adv-x="1087" d="M109 481.5q0 241.5 109.5 367.5t324.5 126t324.5 -126t109.5 -367.5t-109.5 -368.5t-324.5 -127t-324.5 127t-109.5 368.5zM293 481q0 -213 58.5 -307t191.5 -94t193.5 94t60.5 307t-59.5 306.5t-193.5 93.5t-192.5 -93.5t-58.5 -306.5zM338 1283q0 32 22.5 53.5 t56.5 21.5t60 -35l170 -238l-49 -49l-209 170q-51 45 -51 77z" />
<glyph unicode="&#xf3;" horiz-adv-x="1087" d="M109 481.5q0 241.5 109.5 367.5t324.5 126t324.5 -126t109.5 -367.5t-109.5 -368.5t-324.5 -127t-324.5 127t-109.5 368.5zM293 481q0 -213 58.5 -307t191.5 -94t193.5 94t60.5 307t-59.5 306.5t-193.5 93.5t-192.5 -93.5t-58.5 -306.5zM471 1085l170 238q27 35 60.5 35 t56 -21.5t22.5 -53.5t-51 -77l-213 -170z" />
<glyph unicode="&#xf4;" horiz-adv-x="1087" d="M109 481.5q0 241.5 109.5 367.5t324.5 126t324.5 -126t109.5 -367.5t-109.5 -368.5t-324.5 -127t-324.5 127t-109.5 368.5zM291 1085l190 220q29 33 65 32.5t62 -32.5l189 -220l-47 -49l-207 158l-207 -158zM293 481q0 -213 58.5 -307t191.5 -94t193.5 94t60.5 307 t-59.5 306.5t-193.5 93.5t-192.5 -93.5t-58.5 -306.5z" />
<glyph unicode="&#xf5;" horiz-adv-x="1087" d="M109 481.5q0 241.5 109.5 367.5t324.5 126t324.5 -126t109.5 -367.5t-109.5 -368.5t-324.5 -127t-324.5 127t-109.5 368.5zM223 1130q23 58 76 109t114.5 51t135.5 -35.5t123 -35.5t125 75q35 -12 67 -39q-25 -57 -79 -110t-113.5 -53t-134 35.5t-126 35.5t-122.5 -71 q-33 8 -66 38zM293 481q0 -213 58.5 -307t191.5 -94t193.5 94t60.5 307t-59.5 306.5t-193.5 93.5t-192.5 -93.5t-58.5 -306.5z" />
<glyph unicode="&#xf6;" horiz-adv-x="1087" d="M109 481.5q0 241.5 109.5 367.5t324.5 126t324.5 -126t109.5 -367.5t-109.5 -368.5t-324.5 -127t-324.5 127t-109.5 368.5zM276 1213.5q0 107.5 96.5 107.5t96.5 -107.5t-96.5 -107.5t-96.5 107.5zM293 481q0 -213 58.5 -307t191.5 -94t193.5 94t60.5 307t-59.5 306.5 t-193.5 93.5t-192.5 -93.5t-58.5 -306.5zM618.5 1213.5q-0.5 107.5 94.5 107.5q98 0 98 -107.5t-98 -107.5q-94 0 -94.5 107.5z" />
<glyph unicode="&#xf7;" d="M127 530v109h879v-109h-879zM467 267.5q0 107.5 94 107.5q100 0 100 -107.5t-100 -107.5q-94 0 -94 107.5zM467 902.5q0 107.5 94 107.5q100 0 100 -107.5t-100 -107.5q-94 0 -94 107.5z" />
<glyph unicode="&#xf8;" horiz-adv-x="1087" d="M88 6l109 133q-88 121 -88 352.5t109.5 357.5t324.5 126q172 0 278 -82l82 98h17q25 -16 43 -41l-91 -108q104 -123 104.5 -362.5t-109 -366.5t-312.5 -127t-311 98l-99 -119h-12q-16 12 -45 41zM293 481q0 -121 18 -205l424 512q-59 92 -192 92.5t-191.5 -93 t-58.5 -306.5zM338 197q57 -117 197.5 -117t201 94t60.5 275.5t-29 267.5z" />
<glyph unicode="&#xf9;" horiz-adv-x="1130" d="M49 850l4 59q70 12 273 72l41 -20v-668q0 -215 176 -215q53 0 112.5 40t104.5 122v475q0 76 -32 103.5t-112 31.5l7 59q70 12 272 72l39 -20v-834q45 -39 141 -55l-6 -72h-272l-21 129q-106 -143 -256 -143q-330 0 -330 329v400q0 76 -30.5 103.5t-110.5 31.5z M356.5 1283q-0.5 32 22 53.5t56.5 21.5t61 -35l170 -238l-50 -49l-208 170q-51 45 -51.5 77z" />
<glyph unicode="&#xfa;" horiz-adv-x="1130" d="M49 850l4 59q70 12 273 72l41 -20v-668q0 -215 176 -215q53 0 112.5 40t104.5 122v475q0 76 -32 103.5t-112 31.5l7 59q70 12 272 72l39 -20v-834q45 -39 141 -55l-6 -72h-272l-21 129q-106 -143 -256 -143q-330 0 -330 329v400q0 76 -30.5 103.5t-110.5 31.5zM489 1085 l170 238q27 35 61 35t56.5 -21.5t22.5 -53.5t-51 -77l-213 -170z" />
<glyph unicode="&#xfb;" horiz-adv-x="1130" d="M49 850l4 59q70 12 273 72l41 -20v-668q0 -215 176 -215q53 0 112.5 40t104.5 122v475q0 76 -32 103.5t-112 31.5l7 59q70 12 272 72l39 -20v-834q45 -39 141 -55l-6 -72h-272l-21 129q-106 -143 -256 -143q-330 0 -330 329v400q0 76 -30.5 103.5t-110.5 31.5zM309 1085 l191 220q29 33 64.5 32.5t62.5 -32.5l188 -220l-47 -49l-207 158l-207 -158z" />
<glyph unicode="&#xfc;" horiz-adv-x="1130" d="M49 850l4 59q70 12 273 72l41 -20v-668q0 -215 176 -215q53 0 112.5 40t104.5 122v475q0 76 -32 103.5t-112 31.5l7 59q70 12 272 72l39 -20v-834q45 -39 141 -55l-6 -72h-272l-21 129q-106 -143 -256 -143q-330 0 -330 329v400q0 76 -30.5 103.5t-110.5 31.5z M295 1213.5q0 107.5 96 107.5t96 -107.5t-96 -107.5t-96 107.5zM637 1213.5q0 107.5 94 107.5q98 0 98 -107.5t-98 -107.5q-94 0 -94 107.5z" />
<glyph unicode="&#xfd;" horiz-adv-x="1032" d="M-14 893l4 63h446l-6 -61q-78 -6 -121 -45l238 -625l203 625q-45 35 -121 45l4 61h399l-4 -61q-135 -20 -149 -61l-349 -1006q-51 -150 -115.5 -212t-153.5 -62t-142 44t-53 106.5t28.5 93t68.5 30.5t75 -23q-25 -35 -25 -68.5t18.5 -53t55.5 -19.5q76 0 137 186l43 134 l-336 823q-27 66 -145 86zM436 1085l170 238q27 35 60.5 35t56 -21.5t22.5 -53.5t-51 -77l-213 -170z" />
<glyph unicode="&#xfe;" horiz-adv-x="1120" d="M49 -430l6 74q82 10 135 51v1466q0 76 -30.5 103.5t-110.5 31.5l4 60q70 12 273 71l41 -20v-567q86 135 262 135q375 0 375 -475q0 -250 -119 -382t-344 -132q-96 0 -174 32v-323q49 -39 141 -55l-6 -70h-453zM367 111q74 -39 192.5 -39t191 112.5t72.5 313t-52 295 t-161 94.5q-244 0 -243 -385v-391z" />
<glyph unicode="&#xff;" horiz-adv-x="1032" d="M-14 893l4 63h446l-6 -61q-78 -6 -121 -45l238 -625l203 625q-45 35 -121 45l4 61h399l-4 -61q-135 -20 -149 -61l-349 -1006q-51 -150 -115.5 -212t-153.5 -62t-142 44t-53 106.5t28.5 93t68.5 30.5t75 -23q-25 -35 -25 -68.5t18.5 -53t55.5 -19.5q76 0 137 186l43 134 l-336 823q-27 66 -145 86zM242 1213.5q0 107.5 96 107.5t96 -107.5t-96 -107.5t-96 107.5zM584 1213.5q0 107.5 94 107.5q98 0 98 -107.5t-98 -107.5q-94 0 -94 107.5z" />
<glyph unicode="&#x152;" horiz-adv-x="1902" d="M88 685q0 699 559 699q86 0 162 -18h895l18 -311q-16 -8 -44.5 -8t-41.5 2q-31 137 -86 208h-379v-522l222 21q82 6 116 137h64v-406h-64l-4 21q-10 37 -18 57.5t-34 45t-62 28.5l-220 23v-543h428q61 86 89 231q25 4 39 4t42 -4l-18 -350h-948q-86 -14 -156 -14 q-559 0 -559 699zM293 736q0 -161 7 -240.5t28.5 -160.5t59.5 -132t103.5 -84t155.5 -33t155.5 33t103.5 84t61 133q35 133 34.5 309t-12.5 272.5t-47 184.5q-74 180 -295 180q-254 0 -319 -248q-35 -137 -35 -298z" />
<glyph unicode="&#x153;" horiz-adv-x="1675" d="M109 481.5q0 241.5 109.5 367.5t331.5 126t331 -144q111 143 322.5 143.5t293.5 -106t86 -315.5l-41 -55h-571v-11q0 -186 41 -284q49 -117 213 -117q68 0 133 24.5t96 49.5l31 22l53 -61q-14 -14 -42 -37t-112 -60.5t-170 -37.5q-236 0 -340 135q-111 -135 -328.5 -135 t-327 127t-109.5 368.5zM291 481q0 -213 59.5 -307t192.5 -94t192.5 94t59.5 307t-59.5 306.5t-192.5 93.5t-192.5 -93.5t-59.5 -306.5zM971 573l430 15q0 160 -43 232.5t-154 72.5q-227 0 -233 -320z" />
<glyph unicode="&#x178;" horiz-adv-x="1167" d="M23 1292l10 74h506q-8 -49 -11 -74q-106 -14 -178 -55l256 -535l262 537q-78 41 -182 53q2 25 10 74h451l-12 -74q-74 -14 -125 -53l-332 -672v-436q70 -39 209 -55l-8 -76h-590l10 76q127 14 199 55v412l-348 696q-49 37 -127 53zM338 1598.5q0 107.5 96 107.5 t96 -107.5t-96 -107.5t-96 107.5zM680 1598.5q0 107.5 94 107.5q98 0 98 -107.5t-98 -107.5q-94 0 -94 107.5z" />
<glyph unicode="&#x2c6;" horiz-adv-x="583" d="M39 1122l190 219q29 33 65 33t62 -33l189 -219l-47 -49l-207 158l-207 -158z" />
<glyph unicode="&#x2dc;" horiz-adv-x="583" d="M20 1167q23 58 76.5 109t114.5 51t135 -36t123 -36t125 76q35 -12 68 -39q-25 -57 -79.5 -110.5t-113.5 -53.5t-135 36t-126 36t-122 -72q-33 8 -66 39z" />
<glyph unicode="&#x2000;" horiz-adv-x="883" />
<glyph unicode="&#x2001;" horiz-adv-x="1767" />
<glyph unicode="&#x2002;" horiz-adv-x="883" />
<glyph unicode="&#x2003;" horiz-adv-x="1767" />
<glyph unicode="&#x2004;" horiz-adv-x="589" />
<glyph unicode="&#x2005;" horiz-adv-x="441" />
<glyph unicode="&#x2006;" horiz-adv-x="294" />
<glyph unicode="&#x2007;" horiz-adv-x="294" />
<glyph unicode="&#x2008;" horiz-adv-x="220" />
<glyph unicode="&#x2009;" horiz-adv-x="353" />
<glyph unicode="&#x200a;" horiz-adv-x="98" />
<glyph unicode="&#x2010;" horiz-adv-x="679" d="M106 473v111h469v-111h-469z" />
<glyph unicode="&#x2011;" horiz-adv-x="679" d="M106 473v111h469v-111h-469z" />
<glyph unicode="&#x2012;" horiz-adv-x="679" d="M106 473v111h469v-111h-469z" />
<glyph unicode="&#x2013;" horiz-adv-x="1024" d="M78 471v111h868v-111h-868z" />
<glyph unicode="&#x2014;" horiz-adv-x="2048" d="M90 471v111h1868v-111h-1868z" />
<glyph unicode="&#x2018;" horiz-adv-x="452" d="M94 1114q0 162 164 266l49 -51q-57 -55 -57 -125.5t45 -70.5q16 0 31 10q23 -27 22.5 -76t-35 -80t-91 -31t-92.5 43t-36 115z" />
<glyph unicode="&#x2019;" horiz-adv-x="452" d="M104 1270q0 49 35 79.5t92.5 30.5t92 -43t34.5 -114q0 -162 -163 -267l-50 52q59 57 59.5 126.5t-46.5 69.5q-14 0 -31 -10q-23 27 -23 76z" />
<glyph unicode="&#x201a;" horiz-adv-x="419" d="M80 -217q41 35 65.5 85t24.5 105.5t-41 55.5q-11 0 -25 -6q-23 27 -22.5 73.5t35.5 76.5t91 30t92 -41t36 -109q0 -199 -207 -329z" />
<glyph unicode="&#x201c;" horiz-adv-x="768" d="M94 1114q0 162 164 266l49 -51q-57 -55 -57 -125.5t45 -70.5q16 0 31 10q23 -27 22.5 -76t-35 -80t-91 -31t-92.5 43t-36 115zM430 1114q0 162 164 266l49 -51q-57 -55 -57 -125.5t45 -70.5q16 0 31 10q23 -27 22.5 -76t-35.5 -80t-91 -31t-92 43t-36 115z" />
<glyph unicode="&#x201d;" horiz-adv-x="768" d="M86 1270q0 49 35 79.5t92 30.5t92 -43t35 -114q0 -162 -164 -267l-49 52q59 57 59 126.5t-47 69.5q-16 0 -30 -10q-23 27 -23 76zM419.5 1270q0.5 49 35 79.5t92 30.5t92.5 -43t35 -114q0 -162 -164 -267l-49 52q59 57 59 126.5t-47 69.5q-14 0 -31 -10q-23 27 -22.5 76z " />
<glyph unicode="&#x201e;" horiz-adv-x="737" d="M49 -217q41 35 65.5 85t24.5 105.5t-41 55.5q-10 0 -24 -6q-23 27 -23 73.5t35 76.5t91 30t92 -41t36 -109q0 -199 -207 -329zM397 -217q41 35 65.5 85t24.5 105.5t-41 55.5q-8 0 -24 -6q-23 27 -23 73.5t35 76.5t91.5 30t92 -41t35.5 -109q0 -199 -207 -329z" />
<glyph unicode="&#x2022;" horiz-adv-x="907" d="M279 590q0 94 45 149.5t131 55.5t131 -56.5t45 -151.5t-45 -149.5t-131 -54.5t-131 56.5t-45 150.5z" />
<glyph unicode="&#x2026;" horiz-adv-x="1540" d="M240 104.5q0 118.5 108.5 118.5t108.5 -118.5t-108.5 -118.5t-108.5 118.5zM731 104.5q0 118.5 108.5 118.5t108.5 -118.5t-108.5 -118.5t-108.5 118.5zM1219 104.5q0 118.5 108.5 118.5t108.5 -118.5t-108.5 -118.5t-108.5 118.5z" />
<glyph unicode="&#x202f;" horiz-adv-x="353" />
<glyph unicode="&#x2039;" horiz-adv-x="620" d="M88 494l328 405l80 -49l-205 -356l205 -355l-80 -51z" />
<glyph unicode="&#x203a;" horiz-adv-x="620" d="M125 139l203 355l-203 356l80 49l327 -405l-327 -406z" />
<glyph unicode="&#x205f;" horiz-adv-x="441" />
<glyph unicode="&#x20ac;" horiz-adv-x="1286" d="M135 563l12 15h140q-2 33 -2 104v23h-140q-10 37 -10 67l12 14h140q37 596 512 596q184 0 291 -108q61 -59 61 -135t-34 -119t-79 -43q-88 0 -104 76q29 49 29 103t-48.5 85t-121.5 31q-158 0 -232 -114t-84 -372h344q10 -37 10 -69l-14 -12h-342v-23q0 -72 2 -104h287 q10 -37 10 -70l-14 -12h-279q18 -213 91 -307.5t221 -94.5q74 0 122 32t48 86t-29 103q8 35 36.5 55.5t71.5 20.5t76 -42t33 -118.5t-61 -136.5q-106 -109 -291 -108q-229 0 -353 125t-153 385h-148q-10 37 -10 67z" />
<glyph unicode="&#x2122;" horiz-adv-x="1390" d="M14 1176v170h504v-170h-57l-37 110l-105 6v-495l93 -25l-6 -41h-281l6 41l86 25v495l-104 -6l-41 -110h-58zM551 731l4 41l86 25v485l-90 25l4 39h213l188 -472l183 472h211l-4 -39l-89 -25v-485l93 -25l-4 -41h-281l8 41l84 25v409l-176 -475h-74l-186 486v-420l92 -25 l-4 -41h-258z" />
<glyph unicode="&#x25fc;" horiz-adv-x="952" d="M0 0v952h952v-952h-952z" />
<glyph unicode="&#xfb01;" horiz-adv-x="1189" d="M39 926q111 10 162 37v110q0 186 106.5 282.5t314 96.5t324.5 -61v-228h-112q-20 111 -73.5 162t-146.5 51q-240 0 -239 -327v-86h616v-838q53 -37 144 -55l-9 -70h-450l6 74q84 12 135 51v596q0 76 -30.5 104.5t-110.5 28.5h-301v-727q49 -35 166 -57l-6 -70h-478l9 74 q84 12 135 53v727h-152z" />
<glyph unicode="&#xfb02;" horiz-adv-x="1175" d="M37 926q104 10 162 35v55q0 434 387 434q92 0 204.5 -32t165.5 -32l31 -20v-1243q49 -37 143 -55l-8 -70h-450l6 74q86 14 135 51v1012q0 127 -50 184t-179 57t-169 -92t-40 -323h268v-107h-268v-729q43 -33 153 -55l-6 -70h-467l8 74q88 14 136 51v729h-152z" />
</font>
</defs>
</svg>
